%TF.GenerationSoftware,KiCad,Pcbnew,(5.1.12)-1*%
%TF.CreationDate,2021-11-26T11:14:42+00:00*%
%TF.ProjectId,pepega v.01,70657065-6761-4207-962e-30312e6b6963,rev?*%
%TF.SameCoordinates,Original*%
%TF.FileFunction,Paste,Bot*%
%TF.FilePolarity,Positive*%
%FSLAX46Y46*%
G04 Gerber Fmt 4.6, Leading zero omitted, Abs format (unit mm)*
G04 Created by KiCad (PCBNEW (5.1.12)-1) date 2021-11-26 11:14:42*
%MOMM*%
%LPD*%
G01*
G04 APERTURE LIST*
%ADD10C,0.150000*%
G04 APERTURE END LIST*
D10*
X72667142Y-79462380D02*
X72333809Y-80462380D01*
X72000476Y-79462380D01*
X71905238Y-80557619D02*
X71143333Y-80557619D01*
X70905238Y-80462380D02*
X70905238Y-79795714D01*
X70905238Y-79462380D02*
X70952857Y-79510000D01*
X70905238Y-79557619D01*
X70857619Y-79510000D01*
X70905238Y-79462380D01*
X70905238Y-79557619D01*
X70429047Y-79795714D02*
X70429047Y-80462380D01*
X70429047Y-79890952D02*
X70381428Y-79843333D01*
X70286190Y-79795714D01*
X70143333Y-79795714D01*
X70048095Y-79843333D01*
X70000476Y-79938571D01*
X70000476Y-80462380D01*
X68762380Y-79795714D02*
X68762380Y-80795714D01*
X68762380Y-79843333D02*
X68667142Y-79795714D01*
X68476666Y-79795714D01*
X68381428Y-79843333D01*
X68333809Y-79890952D01*
X68286190Y-79986190D01*
X68286190Y-80271904D01*
X68333809Y-80367142D01*
X68381428Y-80414761D01*
X68476666Y-80462380D01*
X68667142Y-80462380D01*
X68762380Y-80414761D01*
X67857619Y-80462380D02*
X67857619Y-79795714D01*
X67857619Y-79462380D02*
X67905238Y-79510000D01*
X67857619Y-79557619D01*
X67810000Y-79510000D01*
X67857619Y-79462380D01*
X67857619Y-79557619D01*
X67381428Y-79795714D02*
X67381428Y-80462380D01*
X67381428Y-79890952D02*
X67333809Y-79843333D01*
X67238571Y-79795714D01*
X67095714Y-79795714D01*
X67000476Y-79843333D01*
X66952857Y-79938571D01*
X66952857Y-80462380D01*
X65571904Y-80462380D02*
X65667142Y-80414761D01*
X65714761Y-80367142D01*
X65762380Y-80271904D01*
X65762380Y-79986190D01*
X65714761Y-79890952D01*
X65667142Y-79843333D01*
X65571904Y-79795714D01*
X65429047Y-79795714D01*
X65333809Y-79843333D01*
X65286190Y-79890952D01*
X65238571Y-79986190D01*
X65238571Y-80271904D01*
X65286190Y-80367142D01*
X65333809Y-80414761D01*
X65429047Y-80462380D01*
X65571904Y-80462380D01*
X64381428Y-79795714D02*
X64381428Y-80462380D01*
X64810000Y-79795714D02*
X64810000Y-80319523D01*
X64762380Y-80414761D01*
X64667142Y-80462380D01*
X64524285Y-80462380D01*
X64429047Y-80414761D01*
X64381428Y-80367142D01*
X64048095Y-79795714D02*
X63667142Y-79795714D01*
X63905238Y-79462380D02*
X63905238Y-80319523D01*
X63857619Y-80414761D01*
X63762380Y-80462380D01*
X63667142Y-80462380D01*
X62619523Y-79557619D02*
X62571904Y-79510000D01*
X62476666Y-79462380D01*
X62238571Y-79462380D01*
X62143333Y-79510000D01*
X62095714Y-79557619D01*
X62048095Y-79652857D01*
X62048095Y-79748095D01*
X62095714Y-79890952D01*
X62667142Y-80462380D01*
X62048095Y-80462380D01*
X56927142Y-85812380D02*
X56593809Y-86812380D01*
X56260476Y-85812380D01*
X56165238Y-86907619D02*
X55403333Y-86907619D01*
X55165238Y-86812380D02*
X55165238Y-86145714D01*
X55165238Y-85812380D02*
X55212857Y-85860000D01*
X55165238Y-85907619D01*
X55117619Y-85860000D01*
X55165238Y-85812380D01*
X55165238Y-85907619D01*
X54689047Y-86145714D02*
X54689047Y-86812380D01*
X54689047Y-86240952D02*
X54641428Y-86193333D01*
X54546190Y-86145714D01*
X54403333Y-86145714D01*
X54308095Y-86193333D01*
X54260476Y-86288571D01*
X54260476Y-86812380D01*
X53022380Y-86145714D02*
X53022380Y-87145714D01*
X53022380Y-86193333D02*
X52927142Y-86145714D01*
X52736666Y-86145714D01*
X52641428Y-86193333D01*
X52593809Y-86240952D01*
X52546190Y-86336190D01*
X52546190Y-86621904D01*
X52593809Y-86717142D01*
X52641428Y-86764761D01*
X52736666Y-86812380D01*
X52927142Y-86812380D01*
X53022380Y-86764761D01*
X52117619Y-86812380D02*
X52117619Y-86145714D01*
X52117619Y-85812380D02*
X52165238Y-85860000D01*
X52117619Y-85907619D01*
X52070000Y-85860000D01*
X52117619Y-85812380D01*
X52117619Y-85907619D01*
X51641428Y-86145714D02*
X51641428Y-86812380D01*
X51641428Y-86240952D02*
X51593809Y-86193333D01*
X51498571Y-86145714D01*
X51355714Y-86145714D01*
X51260476Y-86193333D01*
X51212857Y-86288571D01*
X51212857Y-86812380D01*
X49974761Y-86812380D02*
X49974761Y-86145714D01*
X49974761Y-85812380D02*
X50022380Y-85860000D01*
X49974761Y-85907619D01*
X49927142Y-85860000D01*
X49974761Y-85812380D01*
X49974761Y-85907619D01*
X49498571Y-86145714D02*
X49498571Y-86812380D01*
X49498571Y-86240952D02*
X49450952Y-86193333D01*
X49355714Y-86145714D01*
X49212857Y-86145714D01*
X49117619Y-86193333D01*
X49070000Y-86288571D01*
X49070000Y-86812380D01*
X47308095Y-86812380D02*
X47879523Y-86812380D01*
X47593809Y-86812380D02*
X47593809Y-85812380D01*
X47689047Y-85955238D01*
X47784285Y-86050476D01*
X47879523Y-86098095D01*
X71397142Y-62952380D02*
X71063809Y-63952380D01*
X70730476Y-62952380D01*
X70635238Y-64047619D02*
X69873333Y-64047619D01*
X69635238Y-63952380D02*
X69635238Y-63285714D01*
X69635238Y-62952380D02*
X69682857Y-63000000D01*
X69635238Y-63047619D01*
X69587619Y-63000000D01*
X69635238Y-62952380D01*
X69635238Y-63047619D01*
X69159047Y-63285714D02*
X69159047Y-63952380D01*
X69159047Y-63380952D02*
X69111428Y-63333333D01*
X69016190Y-63285714D01*
X68873333Y-63285714D01*
X68778095Y-63333333D01*
X68730476Y-63428571D01*
X68730476Y-63952380D01*
X67492380Y-63285714D02*
X67492380Y-64285714D01*
X67492380Y-63333333D02*
X67397142Y-63285714D01*
X67206666Y-63285714D01*
X67111428Y-63333333D01*
X67063809Y-63380952D01*
X67016190Y-63476190D01*
X67016190Y-63761904D01*
X67063809Y-63857142D01*
X67111428Y-63904761D01*
X67206666Y-63952380D01*
X67397142Y-63952380D01*
X67492380Y-63904761D01*
X66587619Y-63952380D02*
X66587619Y-63285714D01*
X66587619Y-62952380D02*
X66635238Y-63000000D01*
X66587619Y-63047619D01*
X66540000Y-63000000D01*
X66587619Y-62952380D01*
X66587619Y-63047619D01*
X66111428Y-63285714D02*
X66111428Y-63952380D01*
X66111428Y-63380952D02*
X66063809Y-63333333D01*
X65968571Y-63285714D01*
X65825714Y-63285714D01*
X65730476Y-63333333D01*
X65682857Y-63428571D01*
X65682857Y-63952380D01*
X64301904Y-63952380D02*
X64397142Y-63904761D01*
X64444761Y-63857142D01*
X64492380Y-63761904D01*
X64492380Y-63476190D01*
X64444761Y-63380952D01*
X64397142Y-63333333D01*
X64301904Y-63285714D01*
X64159047Y-63285714D01*
X64063809Y-63333333D01*
X64016190Y-63380952D01*
X63968571Y-63476190D01*
X63968571Y-63761904D01*
X64016190Y-63857142D01*
X64063809Y-63904761D01*
X64159047Y-63952380D01*
X64301904Y-63952380D01*
X63111428Y-63285714D02*
X63111428Y-63952380D01*
X63540000Y-63285714D02*
X63540000Y-63809523D01*
X63492380Y-63904761D01*
X63397142Y-63952380D01*
X63254285Y-63952380D01*
X63159047Y-63904761D01*
X63111428Y-63857142D01*
X62778095Y-63285714D02*
X62397142Y-63285714D01*
X62635238Y-62952380D02*
X62635238Y-63809523D01*
X62587619Y-63904761D01*
X62492380Y-63952380D01*
X62397142Y-63952380D01*
X60778095Y-63952380D02*
X61349523Y-63952380D01*
X61063809Y-63952380D02*
X61063809Y-62952380D01*
X61159047Y-63095238D01*
X61254285Y-63190476D01*
X61349523Y-63238095D01*
X52045714Y-60412380D02*
X51712380Y-61412380D01*
X51379047Y-60412380D01*
X51283809Y-61507619D02*
X50521904Y-61507619D01*
X50283809Y-61412380D02*
X50283809Y-60745714D01*
X50283809Y-60412380D02*
X50331428Y-60460000D01*
X50283809Y-60507619D01*
X50236190Y-60460000D01*
X50283809Y-60412380D01*
X50283809Y-60507619D01*
X49807619Y-60745714D02*
X49807619Y-61412380D01*
X49807619Y-60840952D02*
X49760000Y-60793333D01*
X49664761Y-60745714D01*
X49521904Y-60745714D01*
X49426666Y-60793333D01*
X49379047Y-60888571D01*
X49379047Y-61412380D01*
X48140952Y-60745714D02*
X48140952Y-61745714D01*
X48140952Y-60793333D02*
X48045714Y-60745714D01*
X47855238Y-60745714D01*
X47760000Y-60793333D01*
X47712380Y-60840952D01*
X47664761Y-60936190D01*
X47664761Y-61221904D01*
X47712380Y-61317142D01*
X47760000Y-61364761D01*
X47855238Y-61412380D01*
X48045714Y-61412380D01*
X48140952Y-61364761D01*
X47236190Y-61412380D02*
X47236190Y-60745714D01*
X47236190Y-60412380D02*
X47283809Y-60460000D01*
X47236190Y-60507619D01*
X47188571Y-60460000D01*
X47236190Y-60412380D01*
X47236190Y-60507619D01*
X46760000Y-60745714D02*
X46760000Y-61412380D01*
X46760000Y-60840952D02*
X46712380Y-60793333D01*
X46617142Y-60745714D01*
X46474285Y-60745714D01*
X46379047Y-60793333D01*
X46331428Y-60888571D01*
X46331428Y-61412380D01*
X44569523Y-61412380D02*
X45140952Y-61412380D01*
X44855238Y-61412380D02*
X44855238Y-60412380D01*
X44950476Y-60555238D01*
X45045714Y-60650476D01*
X45140952Y-60698095D01*
M02*
