%TF.GenerationSoftware,KiCad,Pcbnew,(5.1.12)-1*%
%TF.CreationDate,2021-11-26T11:14:42+00:00*%
%TF.ProjectId,pepega v.01,70657065-6761-4207-962e-30312e6b6963,rev?*%
%TF.SameCoordinates,Original*%
%TF.FileFunction,Paste,Top*%
%TF.FilePolarity,Positive*%
%FSLAX46Y46*%
G04 Gerber Fmt 4.6, Leading zero omitted, Abs format (unit mm)*
G04 Created by KiCad (PCBNEW (5.1.12)-1) date 2021-11-26 11:14:42*
%MOMM*%
%LPD*%
G01*
G04 APERTURE LIST*
%ADD10C,0.150000*%
G04 APERTURE END LIST*
D10*
X50689047Y-86812380D02*
X50689047Y-85812380D01*
X51165238Y-86812380D02*
X51165238Y-85812380D01*
X51736666Y-86812380D01*
X51736666Y-85812380D01*
X52927142Y-85907619D02*
X52974761Y-85860000D01*
X53070000Y-85812380D01*
X53308095Y-85812380D01*
X53403333Y-85860000D01*
X53450952Y-85907619D01*
X53498571Y-86002857D01*
X53498571Y-86098095D01*
X53450952Y-86240952D01*
X52879523Y-86812380D01*
X53498571Y-86812380D01*
X45609047Y-62682380D02*
X45609047Y-61682380D01*
X46085238Y-62682380D02*
X46085238Y-61682380D01*
X46656666Y-62682380D01*
X46656666Y-61682380D01*
X48418571Y-62682380D02*
X47847142Y-62682380D01*
X48132857Y-62682380D02*
X48132857Y-61682380D01*
X48037619Y-61825238D01*
X47942380Y-61920476D01*
X47847142Y-61968095D01*
X71628095Y-82050000D02*
X71532857Y-82002380D01*
X71390000Y-82002380D01*
X71247142Y-82050000D01*
X71151904Y-82145238D01*
X71104285Y-82240476D01*
X71056666Y-82430952D01*
X71056666Y-82573809D01*
X71104285Y-82764285D01*
X71151904Y-82859523D01*
X71247142Y-82954761D01*
X71390000Y-83002380D01*
X71485238Y-83002380D01*
X71628095Y-82954761D01*
X71675714Y-82907142D01*
X71675714Y-82573809D01*
X71485238Y-82573809D01*
X72104285Y-83002380D02*
X72104285Y-82002380D01*
X72675714Y-83002380D01*
X72675714Y-82002380D01*
X73151904Y-83002380D02*
X73151904Y-82002380D01*
X73390000Y-82002380D01*
X73532857Y-82050000D01*
X73628095Y-82145238D01*
X73675714Y-82240476D01*
X73723333Y-82430952D01*
X73723333Y-82573809D01*
X73675714Y-82764285D01*
X73628095Y-82859523D01*
X73532857Y-82954761D01*
X73390000Y-83002380D01*
X73151904Y-83002380D01*
X66548095Y-71890000D02*
X66452857Y-71842380D01*
X66310000Y-71842380D01*
X66167142Y-71890000D01*
X66071904Y-71985238D01*
X66024285Y-72080476D01*
X65976666Y-72270952D01*
X65976666Y-72413809D01*
X66024285Y-72604285D01*
X66071904Y-72699523D01*
X66167142Y-72794761D01*
X66310000Y-72842380D01*
X66405238Y-72842380D01*
X66548095Y-72794761D01*
X66595714Y-72747142D01*
X66595714Y-72413809D01*
X66405238Y-72413809D01*
X67024285Y-72842380D02*
X67024285Y-71842380D01*
X67595714Y-72842380D01*
X67595714Y-71842380D01*
X68071904Y-72842380D02*
X68071904Y-71842380D01*
X68310000Y-71842380D01*
X68452857Y-71890000D01*
X68548095Y-71985238D01*
X68595714Y-72080476D01*
X68643333Y-72270952D01*
X68643333Y-72413809D01*
X68595714Y-72604285D01*
X68548095Y-72699523D01*
X68452857Y-72794761D01*
X68310000Y-72842380D01*
X68071904Y-72842380D01*
X69548571Y-73731428D02*
X70310476Y-73731428D01*
X69929523Y-74112380D02*
X69929523Y-73350476D01*
X71310476Y-74112380D02*
X70739047Y-74112380D01*
X71024761Y-74112380D02*
X71024761Y-73112380D01*
X70929523Y-73255238D01*
X70834285Y-73350476D01*
X70739047Y-73398095D01*
X71739047Y-74017142D02*
X71786666Y-74064761D01*
X71739047Y-74112380D01*
X71691428Y-74064761D01*
X71739047Y-74017142D01*
X71739047Y-74112380D01*
X72120000Y-73112380D02*
X72739047Y-73112380D01*
X72405714Y-73493333D01*
X72548571Y-73493333D01*
X72643809Y-73540952D01*
X72691428Y-73588571D01*
X72739047Y-73683809D01*
X72739047Y-73921904D01*
X72691428Y-74017142D01*
X72643809Y-74064761D01*
X72548571Y-74112380D01*
X72262857Y-74112380D01*
X72167619Y-74064761D01*
X72120000Y-74017142D01*
X69548571Y-66111428D02*
X70310476Y-66111428D01*
X69929523Y-66492380D02*
X69929523Y-65730476D01*
X71310476Y-66492380D02*
X70739047Y-66492380D01*
X71024761Y-66492380D02*
X71024761Y-65492380D01*
X70929523Y-65635238D01*
X70834285Y-65730476D01*
X70739047Y-65778095D01*
X71739047Y-66397142D02*
X71786666Y-66444761D01*
X71739047Y-66492380D01*
X71691428Y-66444761D01*
X71739047Y-66397142D01*
X71739047Y-66492380D01*
X72120000Y-65492380D02*
X72739047Y-65492380D01*
X72405714Y-65873333D01*
X72548571Y-65873333D01*
X72643809Y-65920952D01*
X72691428Y-65968571D01*
X72739047Y-66063809D01*
X72739047Y-66301904D01*
X72691428Y-66397142D01*
X72643809Y-66444761D01*
X72548571Y-66492380D01*
X72262857Y-66492380D01*
X72167619Y-66444761D01*
X72120000Y-66397142D01*
M02*
