M48
; DRILL file {KiCad (5.1.12)-1} date 11/26/21 11:14:45
; FORMAT={-:-/ absolute / inch / decimal}
; #@! TF.CreationDate,2021-11-26T11:14:45+00:00
; #@! TF.GenerationSoftware,Kicad,Pcbnew,(5.1.12)-1
; #@! TF.FileFunction,Plated,1,2,PTH
FMAT,2
INCH
T1C0.0236
T2C0.0276
T3C0.0295
T4C0.0394
%
G90
G05
T1
X2.1Y-2.9713
X2.1Y-3.05
X2.15Y-2.7
X2.15Y-2.7787
X2.55Y-2.65
X2.55Y-2.7287
X2.65Y-3.25
X2.65Y-3.3287
T2
X2.35Y-2.55
X2.35Y-2.75
X2.4Y-2.45
X2.4Y-2.85
X2.4Y-3.05
X2.55Y-2.9
X2.55Y-3.1
X2.6Y-2.45
T3
X2.1Y-2.5
X2.15Y-2.5
X2.2Y-2.5
X2.3Y-3.2
X2.35Y-3.2
X2.4Y-3.2
T4
X1.85Y-2.6
X1.85Y-2.8
X1.85Y-2.9
X1.85Y-3.0
X1.85Y-3.1
X1.85Y-3.2
X1.85Y-3.3
X2.05Y-3.25
X2.8Y-2.7
X2.8Y-2.8
X2.8Y-3.0
X2.8Y-3.1
T0
M30
