%TF.GenerationSoftware,KiCad,Pcbnew,(5.1.12)-1*%
%TF.CreationDate,2021-11-26T11:14:42+00:00*%
%TF.ProjectId,pepega v.01,70657065-6761-4207-962e-30312e6b6963,rev?*%
%TF.SameCoordinates,Original*%
%TF.FileFunction,Copper,L1,Top*%
%TF.FilePolarity,Positive*%
%FSLAX46Y46*%
G04 Gerber Fmt 4.6, Leading zero omitted, Abs format (unit mm)*
G04 Created by KiCad (PCBNEW (5.1.12)-1) date 2021-11-26 11:14:42*
%MOMM*%
%LPD*%
G01*
G04 APERTURE LIST*
%TA.AperFunction,ComponentPad*%
%ADD10R,1.050000X1.500000*%
%TD*%
%TA.AperFunction,ComponentPad*%
%ADD11O,1.050000X1.500000*%
%TD*%
%TA.AperFunction,ComponentPad*%
%ADD12O,1.400000X1.400000*%
%TD*%
%TA.AperFunction,ComponentPad*%
%ADD13C,1.400000*%
%TD*%
%TA.AperFunction,ComponentPad*%
%ADD14O,1.700000X1.700000*%
%TD*%
%TA.AperFunction,ComponentPad*%
%ADD15R,1.700000X1.700000*%
%TD*%
%TA.AperFunction,ComponentPad*%
%ADD16C,1.200000*%
%TD*%
%TA.AperFunction,Conductor*%
%ADD17C,0.250000*%
%TD*%
%TA.AperFunction,Conductor*%
%ADD18C,0.254000*%
%TD*%
%TA.AperFunction,Conductor*%
%ADD19C,0.100000*%
%TD*%
G04 APERTURE END LIST*
D10*
%TO.P,U2,1*%
%TO.N,Net-(R3-Pad1)*%
X60960000Y-81280000D03*
D11*
%TO.P,U2,3*%
%TO.N,+5F*%
X58420000Y-81280000D03*
%TO.P,U2,2*%
%TO.N,Net-(R3-Pad1)*%
X59690000Y-81280000D03*
%TD*%
D12*
%TO.P,R1,2*%
%TO.N,GND*%
X59690000Y-69850000D03*
D13*
%TO.P,R1,1*%
%TO.N,Net-(R1-Pad1)*%
X59690000Y-64770000D03*
%TD*%
D10*
%TO.P,U1,1*%
%TO.N,Net-(R1-Pad1)*%
X55880000Y-63500000D03*
D11*
%TO.P,U1,3*%
%TO.N,+5V*%
X53340000Y-63500000D03*
%TO.P,U1,2*%
%TO.N,Net-(R1-Pad1)*%
X54610000Y-63500000D03*
%TD*%
D12*
%TO.P,R4,2*%
%TO.N,Net-(C4-Pad1)*%
X64770000Y-73660000D03*
D13*
%TO.P,R4,1*%
%TO.N,Net-(R3-Pad1)*%
X64770000Y-78740000D03*
%TD*%
D12*
%TO.P,R3,2*%
%TO.N,GND*%
X60960000Y-72390000D03*
D13*
%TO.P,R3,1*%
%TO.N,Net-(R3-Pad1)*%
X60960000Y-77470000D03*
%TD*%
D12*
%TO.P,R2,2*%
%TO.N,Net-(C2-Pad1)*%
X66040000Y-62230000D03*
D13*
%TO.P,R2,1*%
%TO.N,Net-(R1-Pad1)*%
X60960000Y-62230000D03*
%TD*%
D14*
%TO.P,J5,2*%
%TO.N,GND*%
X71120000Y-78740000D03*
D15*
%TO.P,J5,1*%
%TO.N,Net-(C4-Pad1)*%
X71120000Y-76200000D03*
%TD*%
%TO.P,J4,1*%
%TO.N,+5F*%
X52070000Y-82550000D03*
%TD*%
%TO.P,J3,1*%
%TO.N,+5V*%
X46990000Y-66040000D03*
%TD*%
D14*
%TO.P,J2,6*%
%TO.N,GND*%
X46990000Y-83820000D03*
%TO.P,J2,5*%
X46990000Y-81280000D03*
%TO.P,J2,4*%
X46990000Y-78740000D03*
%TO.P,J2,3*%
X46990000Y-76200000D03*
%TO.P,J2,2*%
X46990000Y-73660000D03*
D15*
%TO.P,J2,1*%
X46990000Y-71120000D03*
%TD*%
D14*
%TO.P,J1,2*%
%TO.N,GND*%
X71120000Y-71120000D03*
D15*
%TO.P,J1,1*%
%TO.N,Net-(C2-Pad1)*%
X71120000Y-68580000D03*
%TD*%
D16*
%TO.P,C4,2*%
%TO.N,GND*%
X67310000Y-84550000D03*
%TO.P,C4,1*%
%TO.N,Net-(C4-Pad1)*%
X67310000Y-82550000D03*
%TD*%
%TO.P,C3,2*%
%TO.N,GND*%
X53340000Y-75470000D03*
%TO.P,C3,1*%
%TO.N,+5F*%
X53340000Y-77470000D03*
%TD*%
%TO.P,C2,2*%
%TO.N,GND*%
X64770000Y-69310000D03*
%TO.P,C2,1*%
%TO.N,Net-(C2-Pad1)*%
X64770000Y-67310000D03*
%TD*%
%TO.P,C1,2*%
%TO.N,GND*%
X54610000Y-70580000D03*
%TO.P,C1,1*%
%TO.N,+5V*%
X54610000Y-68580000D03*
%TD*%
D17*
%TO.N,Net-(C2-Pad1)*%
X66040000Y-66040000D02*
X64770000Y-67310000D01*
X66040000Y-62230000D02*
X66040000Y-66040000D01*
X68580000Y-68580000D02*
X66040000Y-66040000D01*
X71120000Y-68580000D02*
X68580000Y-68580000D01*
%TO.N,Net-(R1-Pad1)*%
X60960000Y-63500000D02*
X59690000Y-64770000D01*
X60960000Y-62230000D02*
X60960000Y-63500000D01*
X54610000Y-63500000D02*
X55880000Y-63500000D01*
X58420000Y-63500000D02*
X59690000Y-64770000D01*
X55880000Y-63500000D02*
X58420000Y-63500000D01*
%TO.N,GND*%
X46990000Y-71120000D02*
X46990000Y-83820000D01*
X48800000Y-75470000D02*
X46990000Y-73660000D01*
X53340000Y-75470000D02*
X48800000Y-75470000D01*
X47720000Y-71120000D02*
X46990000Y-71120000D01*
X47530000Y-70580000D02*
X46990000Y-71120000D01*
X54610000Y-70580000D02*
X47530000Y-70580000D01*
X55340000Y-69850000D02*
X54610000Y-70580000D01*
X59690000Y-69850000D02*
X55340000Y-69850000D01*
X59690000Y-71120000D02*
X60960000Y-72390000D01*
X59690000Y-69850000D02*
X59690000Y-71120000D01*
X64040000Y-69310000D02*
X64770000Y-69310000D01*
X60960000Y-72390000D02*
X64040000Y-69310000D01*
X69310000Y-69310000D02*
X71120000Y-71120000D01*
X64770000Y-69310000D02*
X69310000Y-69310000D01*
X71120000Y-80740000D02*
X67310000Y-84550000D01*
X71120000Y-78740000D02*
X71120000Y-80740000D01*
X47720000Y-84550000D02*
X46990000Y-83820000D01*
X67310000Y-84550000D02*
X47720000Y-84550000D01*
%TO.N,+5V*%
X50800000Y-66040000D02*
X53340000Y-63500000D01*
X46990000Y-66040000D02*
X50800000Y-66040000D01*
X52070000Y-66040000D02*
X54610000Y-68580000D01*
X50800000Y-66040000D02*
X52070000Y-66040000D01*
%TO.N,Net-(C4-Pad1)*%
X68580000Y-73660000D02*
X71120000Y-76200000D01*
X64770000Y-73660000D02*
X68580000Y-73660000D01*
X67310000Y-80010000D02*
X71120000Y-76200000D01*
X67310000Y-82550000D02*
X67310000Y-80010000D01*
%TO.N,Net-(R3-Pad1)*%
X60960000Y-77470000D02*
X60960000Y-81280000D01*
X60960000Y-81280000D02*
X59690000Y-81280000D01*
X63500000Y-77470000D02*
X64770000Y-78740000D01*
X60960000Y-77470000D02*
X63500000Y-77470000D01*
%TO.N,+5F*%
X52070000Y-78740000D02*
X53340000Y-77470000D01*
X52070000Y-82550000D02*
X52070000Y-78740000D01*
X54610000Y-77470000D02*
X58420000Y-81280000D01*
X53340000Y-77470000D02*
X54610000Y-77470000D01*
%TD*%
D18*
%TO.N,GND*%
X73533000Y-87503000D02*
X43307000Y-87503000D01*
X43307000Y-85399764D01*
X66639841Y-85399764D01*
X66687148Y-85623348D01*
X66908516Y-85724237D01*
X67145313Y-85780000D01*
X67388438Y-85788495D01*
X67628549Y-85749395D01*
X67856418Y-85664202D01*
X67932852Y-85623348D01*
X67980159Y-85399764D01*
X67310000Y-84729605D01*
X66639841Y-85399764D01*
X43307000Y-85399764D01*
X43307000Y-84176890D01*
X45548524Y-84176890D01*
X45593175Y-84324099D01*
X45718359Y-84586920D01*
X45892412Y-84820269D01*
X46108645Y-85015178D01*
X46358748Y-85164157D01*
X46633109Y-85261481D01*
X46863000Y-85140814D01*
X46863000Y-83947000D01*
X47117000Y-83947000D01*
X47117000Y-85140814D01*
X47346891Y-85261481D01*
X47621252Y-85164157D01*
X47871355Y-85015178D01*
X48087588Y-84820269D01*
X48230673Y-84628438D01*
X66071505Y-84628438D01*
X66110605Y-84868549D01*
X66195798Y-85096418D01*
X66236652Y-85172852D01*
X66460236Y-85220159D01*
X67130395Y-84550000D01*
X67489605Y-84550000D01*
X68159764Y-85220159D01*
X68383348Y-85172852D01*
X68484237Y-84951484D01*
X68540000Y-84714687D01*
X68548495Y-84471562D01*
X68509395Y-84231451D01*
X68424202Y-84003582D01*
X68383348Y-83927148D01*
X68159764Y-83879841D01*
X67489605Y-84550000D01*
X67130395Y-84550000D01*
X66460236Y-83879841D01*
X66236652Y-83927148D01*
X66135763Y-84148516D01*
X66080000Y-84385313D01*
X66071505Y-84628438D01*
X48230673Y-84628438D01*
X48261641Y-84586920D01*
X48386825Y-84324099D01*
X48431476Y-84176890D01*
X48310155Y-83947000D01*
X47117000Y-83947000D01*
X46863000Y-83947000D01*
X45669845Y-83947000D01*
X45548524Y-84176890D01*
X43307000Y-84176890D01*
X43307000Y-81636890D01*
X45548524Y-81636890D01*
X45593175Y-81784099D01*
X45718359Y-82046920D01*
X45892412Y-82280269D01*
X46108645Y-82475178D01*
X46234255Y-82550000D01*
X46108645Y-82624822D01*
X45892412Y-82819731D01*
X45718359Y-83053080D01*
X45593175Y-83315901D01*
X45548524Y-83463110D01*
X45669845Y-83693000D01*
X46863000Y-83693000D01*
X46863000Y-81407000D01*
X47117000Y-81407000D01*
X47117000Y-83693000D01*
X48310155Y-83693000D01*
X48431476Y-83463110D01*
X48386825Y-83315901D01*
X48261641Y-83053080D01*
X48087588Y-82819731D01*
X47871355Y-82624822D01*
X47745745Y-82550000D01*
X47871355Y-82475178D01*
X48087588Y-82280269D01*
X48261641Y-82046920D01*
X48386825Y-81784099D01*
X48412333Y-81700000D01*
X50581928Y-81700000D01*
X50581928Y-83400000D01*
X50594188Y-83524482D01*
X50630498Y-83644180D01*
X50689463Y-83754494D01*
X50768815Y-83851185D01*
X50865506Y-83930537D01*
X50975820Y-83989502D01*
X51095518Y-84025812D01*
X51220000Y-84038072D01*
X52920000Y-84038072D01*
X53044482Y-84025812D01*
X53164180Y-83989502D01*
X53274494Y-83930537D01*
X53371185Y-83851185D01*
X53450537Y-83754494D01*
X53509502Y-83644180D01*
X53545812Y-83524482D01*
X53558072Y-83400000D01*
X53558072Y-81700000D01*
X53545812Y-81575518D01*
X53509502Y-81455820D01*
X53450537Y-81345506D01*
X53371185Y-81248815D01*
X53274494Y-81169463D01*
X53164180Y-81110498D01*
X53044482Y-81074188D01*
X52920000Y-81061928D01*
X52830000Y-81061928D01*
X52830000Y-79054801D01*
X53186199Y-78698602D01*
X53218363Y-78705000D01*
X53461637Y-78705000D01*
X53700236Y-78657540D01*
X53924992Y-78564443D01*
X54127267Y-78429287D01*
X54299287Y-78257267D01*
X54308571Y-78243372D01*
X57260000Y-81194802D01*
X57260000Y-81561978D01*
X57276785Y-81732399D01*
X57343115Y-81951059D01*
X57450829Y-82152578D01*
X57595788Y-82329212D01*
X57772421Y-82474171D01*
X57973940Y-82581885D01*
X58192600Y-82648215D01*
X58420000Y-82670612D01*
X58647399Y-82648215D01*
X58866059Y-82581885D01*
X59055000Y-82480894D01*
X59243940Y-82581885D01*
X59462600Y-82648215D01*
X59690000Y-82670612D01*
X59917399Y-82648215D01*
X60126098Y-82584907D01*
X60190820Y-82619502D01*
X60310518Y-82655812D01*
X60435000Y-82668072D01*
X61485000Y-82668072D01*
X61609482Y-82655812D01*
X61729180Y-82619502D01*
X61839494Y-82560537D01*
X61936185Y-82481185D01*
X62015537Y-82384494D01*
X62074502Y-82274180D01*
X62110812Y-82154482D01*
X62123072Y-82030000D01*
X62123072Y-80530000D01*
X62110812Y-80405518D01*
X62074502Y-80285820D01*
X62015537Y-80175506D01*
X61936185Y-80078815D01*
X61839494Y-79999463D01*
X61729180Y-79940498D01*
X61720000Y-79937713D01*
X61720000Y-78567775D01*
X61811013Y-78506962D01*
X61996962Y-78321013D01*
X62057775Y-78230000D01*
X63185199Y-78230000D01*
X63456355Y-78501156D01*
X63435000Y-78608514D01*
X63435000Y-78871486D01*
X63486304Y-79129405D01*
X63586939Y-79372359D01*
X63733038Y-79591013D01*
X63918987Y-79776962D01*
X64137641Y-79923061D01*
X64380595Y-80023696D01*
X64638514Y-80075000D01*
X64901486Y-80075000D01*
X65159405Y-80023696D01*
X65402359Y-79923061D01*
X65621013Y-79776962D01*
X65806962Y-79591013D01*
X65953061Y-79372359D01*
X66053696Y-79129405D01*
X66105000Y-78871486D01*
X66105000Y-78608514D01*
X66053696Y-78350595D01*
X65953061Y-78107641D01*
X65806962Y-77888987D01*
X65621013Y-77703038D01*
X65402359Y-77556939D01*
X65159405Y-77456304D01*
X64901486Y-77405000D01*
X64638514Y-77405000D01*
X64531156Y-77426355D01*
X64063804Y-76959003D01*
X64040001Y-76929999D01*
X63924276Y-76835026D01*
X63792247Y-76764454D01*
X63648986Y-76720997D01*
X63537333Y-76710000D01*
X63537322Y-76710000D01*
X63500000Y-76706324D01*
X63462678Y-76710000D01*
X62057775Y-76710000D01*
X61996962Y-76618987D01*
X61811013Y-76433038D01*
X61592359Y-76286939D01*
X61349405Y-76186304D01*
X61091486Y-76135000D01*
X60828514Y-76135000D01*
X60570595Y-76186304D01*
X60327641Y-76286939D01*
X60108987Y-76433038D01*
X59923038Y-76618987D01*
X59776939Y-76837641D01*
X59676304Y-77080595D01*
X59625000Y-77338514D01*
X59625000Y-77601486D01*
X59676304Y-77859405D01*
X59776939Y-78102359D01*
X59923038Y-78321013D01*
X60108987Y-78506962D01*
X60200000Y-78567775D01*
X60200001Y-79937713D01*
X60190820Y-79940498D01*
X60126098Y-79975093D01*
X59917400Y-79911785D01*
X59690000Y-79889388D01*
X59462601Y-79911785D01*
X59243941Y-79978115D01*
X59055001Y-80079106D01*
X58866060Y-79978115D01*
X58647400Y-79911785D01*
X58420000Y-79889388D01*
X58192601Y-79911785D01*
X58141951Y-79927149D01*
X55173804Y-76959003D01*
X55150001Y-76929999D01*
X55034276Y-76835026D01*
X54902247Y-76764454D01*
X54758986Y-76720997D01*
X54647333Y-76710000D01*
X54647322Y-76710000D01*
X54610000Y-76706324D01*
X54572678Y-76710000D01*
X54317506Y-76710000D01*
X54299287Y-76682733D01*
X54127267Y-76510713D01*
X53989267Y-76418504D01*
X54010159Y-76319764D01*
X53340000Y-75649605D01*
X52669841Y-76319764D01*
X52690733Y-76418504D01*
X52552733Y-76510713D01*
X52380713Y-76682733D01*
X52245557Y-76885008D01*
X52152460Y-77109764D01*
X52105000Y-77348363D01*
X52105000Y-77591637D01*
X52111398Y-77623801D01*
X51558998Y-78176201D01*
X51530000Y-78199999D01*
X51506202Y-78228997D01*
X51506201Y-78228998D01*
X51435026Y-78315724D01*
X51364454Y-78447754D01*
X51346494Y-78506962D01*
X51320999Y-78591013D01*
X51320998Y-78591015D01*
X51306324Y-78740000D01*
X51310001Y-78777332D01*
X51310000Y-81061928D01*
X51220000Y-81061928D01*
X51095518Y-81074188D01*
X50975820Y-81110498D01*
X50865506Y-81169463D01*
X50768815Y-81248815D01*
X50689463Y-81345506D01*
X50630498Y-81455820D01*
X50594188Y-81575518D01*
X50581928Y-81700000D01*
X48412333Y-81700000D01*
X48431476Y-81636890D01*
X48310155Y-81407000D01*
X47117000Y-81407000D01*
X46863000Y-81407000D01*
X45669845Y-81407000D01*
X45548524Y-81636890D01*
X43307000Y-81636890D01*
X43307000Y-79096890D01*
X45548524Y-79096890D01*
X45593175Y-79244099D01*
X45718359Y-79506920D01*
X45892412Y-79740269D01*
X46108645Y-79935178D01*
X46234255Y-80010000D01*
X46108645Y-80084822D01*
X45892412Y-80279731D01*
X45718359Y-80513080D01*
X45593175Y-80775901D01*
X45548524Y-80923110D01*
X45669845Y-81153000D01*
X46863000Y-81153000D01*
X46863000Y-78867000D01*
X47117000Y-78867000D01*
X47117000Y-81153000D01*
X48310155Y-81153000D01*
X48431476Y-80923110D01*
X48386825Y-80775901D01*
X48261641Y-80513080D01*
X48087588Y-80279731D01*
X47871355Y-80084822D01*
X47745745Y-80010000D01*
X47871355Y-79935178D01*
X48087588Y-79740269D01*
X48261641Y-79506920D01*
X48386825Y-79244099D01*
X48431476Y-79096890D01*
X48310155Y-78867000D01*
X47117000Y-78867000D01*
X46863000Y-78867000D01*
X45669845Y-78867000D01*
X45548524Y-79096890D01*
X43307000Y-79096890D01*
X43307000Y-76556890D01*
X45548524Y-76556890D01*
X45593175Y-76704099D01*
X45718359Y-76966920D01*
X45892412Y-77200269D01*
X46108645Y-77395178D01*
X46234255Y-77470000D01*
X46108645Y-77544822D01*
X45892412Y-77739731D01*
X45718359Y-77973080D01*
X45593175Y-78235901D01*
X45548524Y-78383110D01*
X45669845Y-78613000D01*
X46863000Y-78613000D01*
X46863000Y-76327000D01*
X47117000Y-76327000D01*
X47117000Y-78613000D01*
X48310155Y-78613000D01*
X48431476Y-78383110D01*
X48386825Y-78235901D01*
X48261641Y-77973080D01*
X48087588Y-77739731D01*
X47871355Y-77544822D01*
X47745745Y-77470000D01*
X47871355Y-77395178D01*
X48087588Y-77200269D01*
X48261641Y-76966920D01*
X48386825Y-76704099D01*
X48431476Y-76556890D01*
X48310155Y-76327000D01*
X47117000Y-76327000D01*
X46863000Y-76327000D01*
X45669845Y-76327000D01*
X45548524Y-76556890D01*
X43307000Y-76556890D01*
X43307000Y-74016890D01*
X45548524Y-74016890D01*
X45593175Y-74164099D01*
X45718359Y-74426920D01*
X45892412Y-74660269D01*
X46108645Y-74855178D01*
X46234255Y-74930000D01*
X46108645Y-75004822D01*
X45892412Y-75199731D01*
X45718359Y-75433080D01*
X45593175Y-75695901D01*
X45548524Y-75843110D01*
X45669845Y-76073000D01*
X46863000Y-76073000D01*
X46863000Y-73787000D01*
X47117000Y-73787000D01*
X47117000Y-76073000D01*
X48310155Y-76073000D01*
X48431476Y-75843110D01*
X48386825Y-75695901D01*
X48316588Y-75548438D01*
X52101505Y-75548438D01*
X52140605Y-75788549D01*
X52225798Y-76016418D01*
X52266652Y-76092852D01*
X52490236Y-76140159D01*
X53160395Y-75470000D01*
X53519605Y-75470000D01*
X54189764Y-76140159D01*
X54413348Y-76092852D01*
X54514237Y-75871484D01*
X54570000Y-75634687D01*
X54578495Y-75391562D01*
X54539395Y-75151451D01*
X54454202Y-74923582D01*
X54413348Y-74847148D01*
X54189764Y-74799841D01*
X53519605Y-75470000D01*
X53160395Y-75470000D01*
X52490236Y-74799841D01*
X52266652Y-74847148D01*
X52165763Y-75068516D01*
X52110000Y-75305313D01*
X52101505Y-75548438D01*
X48316588Y-75548438D01*
X48261641Y-75433080D01*
X48087588Y-75199731D01*
X47871355Y-75004822D01*
X47745745Y-74930000D01*
X47871355Y-74855178D01*
X48087588Y-74660269D01*
X48117448Y-74620236D01*
X52669841Y-74620236D01*
X53340000Y-75290395D01*
X54010159Y-74620236D01*
X53962852Y-74396652D01*
X53741484Y-74295763D01*
X53504687Y-74240000D01*
X53261562Y-74231505D01*
X53021451Y-74270605D01*
X52793582Y-74355798D01*
X52717148Y-74396652D01*
X52669841Y-74620236D01*
X48117448Y-74620236D01*
X48261641Y-74426920D01*
X48386825Y-74164099D01*
X48431476Y-74016890D01*
X48310155Y-73787000D01*
X47117000Y-73787000D01*
X46863000Y-73787000D01*
X45669845Y-73787000D01*
X45548524Y-74016890D01*
X43307000Y-74016890D01*
X43307000Y-71970000D01*
X45501928Y-71970000D01*
X45514188Y-72094482D01*
X45550498Y-72214180D01*
X45609463Y-72324494D01*
X45688815Y-72421185D01*
X45785506Y-72500537D01*
X45895820Y-72559502D01*
X45976466Y-72583966D01*
X45892412Y-72659731D01*
X45718359Y-72893080D01*
X45593175Y-73155901D01*
X45548524Y-73303110D01*
X45669845Y-73533000D01*
X46863000Y-73533000D01*
X46863000Y-71247000D01*
X47117000Y-71247000D01*
X47117000Y-73533000D01*
X48310155Y-73533000D01*
X48431476Y-73303110D01*
X48386825Y-73155901D01*
X48261641Y-72893080D01*
X48135026Y-72723330D01*
X59667278Y-72723330D01*
X59757147Y-72969123D01*
X59893241Y-73192660D01*
X60070330Y-73385351D01*
X60281608Y-73539792D01*
X60518956Y-73650047D01*
X60626671Y-73682716D01*
X60833000Y-73559374D01*
X60833000Y-72517000D01*
X61087000Y-72517000D01*
X61087000Y-73559374D01*
X61293329Y-73682716D01*
X61401044Y-73650047D01*
X61638392Y-73539792D01*
X61653820Y-73528514D01*
X63435000Y-73528514D01*
X63435000Y-73791486D01*
X63486304Y-74049405D01*
X63586939Y-74292359D01*
X63733038Y-74511013D01*
X63918987Y-74696962D01*
X64137641Y-74843061D01*
X64380595Y-74943696D01*
X64638514Y-74995000D01*
X64901486Y-74995000D01*
X65159405Y-74943696D01*
X65402359Y-74843061D01*
X65621013Y-74696962D01*
X65806962Y-74511013D01*
X65867775Y-74420000D01*
X68265199Y-74420000D01*
X69631928Y-75786730D01*
X69631928Y-76613270D01*
X66798998Y-79446201D01*
X66770000Y-79469999D01*
X66746202Y-79498997D01*
X66746201Y-79498998D01*
X66675026Y-79585724D01*
X66604454Y-79717754D01*
X66586494Y-79776962D01*
X66560998Y-79861014D01*
X66554887Y-79923061D01*
X66546324Y-80010000D01*
X66550001Y-80047332D01*
X66550000Y-81572493D01*
X66522733Y-81590713D01*
X66350713Y-81762733D01*
X66215557Y-81965008D01*
X66122460Y-82189764D01*
X66075000Y-82428363D01*
X66075000Y-82671637D01*
X66122460Y-82910236D01*
X66215557Y-83134992D01*
X66350713Y-83337267D01*
X66522733Y-83509287D01*
X66660733Y-83601496D01*
X66639841Y-83700236D01*
X67310000Y-84370395D01*
X67980159Y-83700236D01*
X67959267Y-83601496D01*
X68097267Y-83509287D01*
X68269287Y-83337267D01*
X68404443Y-83134992D01*
X68497540Y-82910236D01*
X68545000Y-82671637D01*
X68545000Y-82428363D01*
X68497540Y-82189764D01*
X68404443Y-81965008D01*
X68269287Y-81762733D01*
X68097267Y-81590713D01*
X68070000Y-81572494D01*
X68070000Y-80324801D01*
X69635000Y-78759801D01*
X69635000Y-78867002D01*
X69799844Y-78867002D01*
X69678524Y-79096890D01*
X69723175Y-79244099D01*
X69848359Y-79506920D01*
X70022412Y-79740269D01*
X70238645Y-79935178D01*
X70488748Y-80084157D01*
X70763109Y-80181481D01*
X70993000Y-80060814D01*
X70993000Y-78867000D01*
X71247000Y-78867000D01*
X71247000Y-80060814D01*
X71476891Y-80181481D01*
X71751252Y-80084157D01*
X72001355Y-79935178D01*
X72217588Y-79740269D01*
X72391641Y-79506920D01*
X72516825Y-79244099D01*
X72561476Y-79096890D01*
X72440155Y-78867000D01*
X71247000Y-78867000D01*
X70993000Y-78867000D01*
X70973000Y-78867000D01*
X70973000Y-78613000D01*
X70993000Y-78613000D01*
X70993000Y-78593000D01*
X71247000Y-78593000D01*
X71247000Y-78613000D01*
X72440155Y-78613000D01*
X72561476Y-78383110D01*
X72516825Y-78235901D01*
X72391641Y-77973080D01*
X72217588Y-77739731D01*
X72133534Y-77663966D01*
X72214180Y-77639502D01*
X72324494Y-77580537D01*
X72421185Y-77501185D01*
X72500537Y-77404494D01*
X72559502Y-77294180D01*
X72595812Y-77174482D01*
X72608072Y-77050000D01*
X72608072Y-75350000D01*
X72595812Y-75225518D01*
X72559502Y-75105820D01*
X72500537Y-74995506D01*
X72421185Y-74898815D01*
X72324494Y-74819463D01*
X72214180Y-74760498D01*
X72094482Y-74724188D01*
X71970000Y-74711928D01*
X70706730Y-74711928D01*
X69143804Y-73149003D01*
X69120001Y-73119999D01*
X69004276Y-73025026D01*
X68872247Y-72954454D01*
X68728986Y-72910997D01*
X68617333Y-72900000D01*
X68617322Y-72900000D01*
X68580000Y-72896324D01*
X68542678Y-72900000D01*
X65867775Y-72900000D01*
X65806962Y-72808987D01*
X65621013Y-72623038D01*
X65402359Y-72476939D01*
X65159405Y-72376304D01*
X64901486Y-72325000D01*
X64638514Y-72325000D01*
X64380595Y-72376304D01*
X64137641Y-72476939D01*
X63918987Y-72623038D01*
X63733038Y-72808987D01*
X63586939Y-73027641D01*
X63486304Y-73270595D01*
X63435000Y-73528514D01*
X61653820Y-73528514D01*
X61849670Y-73385351D01*
X62026759Y-73192660D01*
X62162853Y-72969123D01*
X62252722Y-72723330D01*
X62130201Y-72517000D01*
X61087000Y-72517000D01*
X60833000Y-72517000D01*
X59789799Y-72517000D01*
X59667278Y-72723330D01*
X48135026Y-72723330D01*
X48087588Y-72659731D01*
X48003534Y-72583966D01*
X48084180Y-72559502D01*
X48194494Y-72500537D01*
X48291185Y-72421185D01*
X48370537Y-72324494D01*
X48429502Y-72214180D01*
X48465812Y-72094482D01*
X48469536Y-72056670D01*
X59667278Y-72056670D01*
X59789799Y-72263000D01*
X60833000Y-72263000D01*
X60833000Y-71220626D01*
X61087000Y-71220626D01*
X61087000Y-72263000D01*
X62130201Y-72263000D01*
X62252722Y-72056670D01*
X62162853Y-71810877D01*
X62026759Y-71587340D01*
X61925253Y-71476890D01*
X69678524Y-71476890D01*
X69723175Y-71624099D01*
X69848359Y-71886920D01*
X70022412Y-72120269D01*
X70238645Y-72315178D01*
X70488748Y-72464157D01*
X70763109Y-72561481D01*
X70993000Y-72440814D01*
X70993000Y-71247000D01*
X71247000Y-71247000D01*
X71247000Y-72440814D01*
X71476891Y-72561481D01*
X71751252Y-72464157D01*
X72001355Y-72315178D01*
X72217588Y-72120269D01*
X72391641Y-71886920D01*
X72516825Y-71624099D01*
X72561476Y-71476890D01*
X72440155Y-71247000D01*
X71247000Y-71247000D01*
X70993000Y-71247000D01*
X69799845Y-71247000D01*
X69678524Y-71476890D01*
X61925253Y-71476890D01*
X61849670Y-71394649D01*
X61638392Y-71240208D01*
X61401044Y-71129953D01*
X61293329Y-71097284D01*
X61087000Y-71220626D01*
X60833000Y-71220626D01*
X60626671Y-71097284D01*
X60518956Y-71129953D01*
X60281608Y-71240208D01*
X60070330Y-71394649D01*
X59893241Y-71587340D01*
X59757147Y-71810877D01*
X59667278Y-72056670D01*
X48469536Y-72056670D01*
X48478072Y-71970000D01*
X48475131Y-71429764D01*
X53939841Y-71429764D01*
X53987148Y-71653348D01*
X54208516Y-71754237D01*
X54445313Y-71810000D01*
X54688438Y-71818495D01*
X54928549Y-71779395D01*
X55156418Y-71694202D01*
X55232852Y-71653348D01*
X55280159Y-71429764D01*
X54610000Y-70759605D01*
X53939841Y-71429764D01*
X48475131Y-71429764D01*
X48475000Y-71405750D01*
X48316250Y-71247000D01*
X47117000Y-71247000D01*
X46863000Y-71247000D01*
X45663750Y-71247000D01*
X45505000Y-71405750D01*
X45501928Y-71970000D01*
X43307000Y-71970000D01*
X43307000Y-70270000D01*
X45501928Y-70270000D01*
X45505000Y-70834250D01*
X45663750Y-70993000D01*
X46863000Y-70993000D01*
X46863000Y-69793750D01*
X47117000Y-69793750D01*
X47117000Y-70993000D01*
X48316250Y-70993000D01*
X48475000Y-70834250D01*
X48475957Y-70658438D01*
X53371505Y-70658438D01*
X53410605Y-70898549D01*
X53495798Y-71126418D01*
X53536652Y-71202852D01*
X53760236Y-71250159D01*
X54430395Y-70580000D01*
X54789605Y-70580000D01*
X55459764Y-71250159D01*
X55683348Y-71202852D01*
X55784237Y-70981484D01*
X55840000Y-70744687D01*
X55848495Y-70501562D01*
X55809395Y-70261451D01*
X55780189Y-70183330D01*
X58397278Y-70183330D01*
X58487147Y-70429123D01*
X58623241Y-70652660D01*
X58800330Y-70845351D01*
X59011608Y-70999792D01*
X59248956Y-71110047D01*
X59356671Y-71142716D01*
X59563000Y-71019374D01*
X59563000Y-69977000D01*
X59817000Y-69977000D01*
X59817000Y-71019374D01*
X60023329Y-71142716D01*
X60131044Y-71110047D01*
X60368392Y-70999792D01*
X60579670Y-70845351D01*
X60756759Y-70652660D01*
X60892853Y-70429123D01*
X60982722Y-70183330D01*
X60968729Y-70159764D01*
X64099841Y-70159764D01*
X64147148Y-70383348D01*
X64368516Y-70484237D01*
X64605313Y-70540000D01*
X64848438Y-70548495D01*
X65088549Y-70509395D01*
X65316418Y-70424202D01*
X65392852Y-70383348D01*
X65440159Y-70159764D01*
X64770000Y-69489605D01*
X64099841Y-70159764D01*
X60968729Y-70159764D01*
X60860201Y-69977000D01*
X59817000Y-69977000D01*
X59563000Y-69977000D01*
X58519799Y-69977000D01*
X58397278Y-70183330D01*
X55780189Y-70183330D01*
X55724202Y-70033582D01*
X55683348Y-69957148D01*
X55459764Y-69909841D01*
X54789605Y-70580000D01*
X54430395Y-70580000D01*
X53760236Y-69909841D01*
X53536652Y-69957148D01*
X53435763Y-70178516D01*
X53380000Y-70415313D01*
X53371505Y-70658438D01*
X48475957Y-70658438D01*
X48478072Y-70270000D01*
X48465812Y-70145518D01*
X48429502Y-70025820D01*
X48370537Y-69915506D01*
X48291185Y-69818815D01*
X48194494Y-69739463D01*
X48084180Y-69680498D01*
X47964482Y-69644188D01*
X47840000Y-69631928D01*
X47275750Y-69635000D01*
X47117000Y-69793750D01*
X46863000Y-69793750D01*
X46704250Y-69635000D01*
X46140000Y-69631928D01*
X46015518Y-69644188D01*
X45895820Y-69680498D01*
X45785506Y-69739463D01*
X45688815Y-69818815D01*
X45609463Y-69915506D01*
X45550498Y-70025820D01*
X45514188Y-70145518D01*
X45501928Y-70270000D01*
X43307000Y-70270000D01*
X43307000Y-65190000D01*
X45501928Y-65190000D01*
X45501928Y-66890000D01*
X45514188Y-67014482D01*
X45550498Y-67134180D01*
X45609463Y-67244494D01*
X45688815Y-67341185D01*
X45785506Y-67420537D01*
X45895820Y-67479502D01*
X46015518Y-67515812D01*
X46140000Y-67528072D01*
X47840000Y-67528072D01*
X47964482Y-67515812D01*
X48084180Y-67479502D01*
X48194494Y-67420537D01*
X48291185Y-67341185D01*
X48370537Y-67244494D01*
X48429502Y-67134180D01*
X48465812Y-67014482D01*
X48478072Y-66890000D01*
X48478072Y-66800000D01*
X50762678Y-66800000D01*
X50800000Y-66803676D01*
X50837322Y-66800000D01*
X51755199Y-66800000D01*
X53381398Y-68426200D01*
X53375000Y-68458363D01*
X53375000Y-68701637D01*
X53422460Y-68940236D01*
X53515557Y-69164992D01*
X53650713Y-69367267D01*
X53822733Y-69539287D01*
X53960733Y-69631496D01*
X53939841Y-69730236D01*
X54610000Y-70400395D01*
X55280159Y-69730236D01*
X55259267Y-69631496D01*
X55397267Y-69539287D01*
X55419884Y-69516670D01*
X58397278Y-69516670D01*
X58519799Y-69723000D01*
X59563000Y-69723000D01*
X59563000Y-68680626D01*
X59817000Y-68680626D01*
X59817000Y-69723000D01*
X60860201Y-69723000D01*
X60982722Y-69516670D01*
X60935837Y-69388438D01*
X63531505Y-69388438D01*
X63570605Y-69628549D01*
X63655798Y-69856418D01*
X63696652Y-69932852D01*
X63920236Y-69980159D01*
X64590395Y-69310000D01*
X64949605Y-69310000D01*
X65619764Y-69980159D01*
X65843348Y-69932852D01*
X65944237Y-69711484D01*
X66000000Y-69474687D01*
X66008495Y-69231562D01*
X65969395Y-68991451D01*
X65884202Y-68763582D01*
X65843348Y-68687148D01*
X65619764Y-68639841D01*
X64949605Y-69310000D01*
X64590395Y-69310000D01*
X63920236Y-68639841D01*
X63696652Y-68687148D01*
X63595763Y-68908516D01*
X63540000Y-69145313D01*
X63531505Y-69388438D01*
X60935837Y-69388438D01*
X60892853Y-69270877D01*
X60756759Y-69047340D01*
X60579670Y-68854649D01*
X60368392Y-68700208D01*
X60131044Y-68589953D01*
X60023329Y-68557284D01*
X59817000Y-68680626D01*
X59563000Y-68680626D01*
X59356671Y-68557284D01*
X59248956Y-68589953D01*
X59011608Y-68700208D01*
X58800330Y-68854649D01*
X58623241Y-69047340D01*
X58487147Y-69270877D01*
X58397278Y-69516670D01*
X55419884Y-69516670D01*
X55569287Y-69367267D01*
X55704443Y-69164992D01*
X55797540Y-68940236D01*
X55845000Y-68701637D01*
X55845000Y-68458363D01*
X55797540Y-68219764D01*
X55704443Y-67995008D01*
X55569287Y-67792733D01*
X55397267Y-67620713D01*
X55194992Y-67485557D01*
X54970236Y-67392460D01*
X54731637Y-67345000D01*
X54488363Y-67345000D01*
X54456200Y-67351398D01*
X54293165Y-67188363D01*
X63535000Y-67188363D01*
X63535000Y-67431637D01*
X63582460Y-67670236D01*
X63675557Y-67894992D01*
X63810713Y-68097267D01*
X63982733Y-68269287D01*
X64120733Y-68361496D01*
X64099841Y-68460236D01*
X64770000Y-69130395D01*
X65440159Y-68460236D01*
X65419267Y-68361496D01*
X65557267Y-68269287D01*
X65729287Y-68097267D01*
X65864443Y-67894992D01*
X65957540Y-67670236D01*
X66005000Y-67431637D01*
X66005000Y-67188363D01*
X65998602Y-67156199D01*
X66040000Y-67114802D01*
X68016205Y-69091008D01*
X68039999Y-69120001D01*
X68068992Y-69143795D01*
X68068996Y-69143799D01*
X68139685Y-69201811D01*
X68155724Y-69214974D01*
X68287753Y-69285546D01*
X68431014Y-69329003D01*
X68542667Y-69340000D01*
X68542676Y-69340000D01*
X68579999Y-69343676D01*
X68617322Y-69340000D01*
X69631928Y-69340000D01*
X69631928Y-69430000D01*
X69644188Y-69554482D01*
X69680498Y-69674180D01*
X69739463Y-69784494D01*
X69818815Y-69881185D01*
X69915506Y-69960537D01*
X70025820Y-70019502D01*
X70106466Y-70043966D01*
X70022412Y-70119731D01*
X69848359Y-70353080D01*
X69723175Y-70615901D01*
X69678524Y-70763110D01*
X69799845Y-70993000D01*
X70993000Y-70993000D01*
X70993000Y-70973000D01*
X71247000Y-70973000D01*
X71247000Y-70993000D01*
X72440155Y-70993000D01*
X72561476Y-70763110D01*
X72516825Y-70615901D01*
X72391641Y-70353080D01*
X72217588Y-70119731D01*
X72133534Y-70043966D01*
X72214180Y-70019502D01*
X72324494Y-69960537D01*
X72421185Y-69881185D01*
X72500537Y-69784494D01*
X72559502Y-69674180D01*
X72595812Y-69554482D01*
X72608072Y-69430000D01*
X72608072Y-67730000D01*
X72595812Y-67605518D01*
X72559502Y-67485820D01*
X72500537Y-67375506D01*
X72421185Y-67278815D01*
X72324494Y-67199463D01*
X72214180Y-67140498D01*
X72094482Y-67104188D01*
X71970000Y-67091928D01*
X70270000Y-67091928D01*
X70145518Y-67104188D01*
X70025820Y-67140498D01*
X69915506Y-67199463D01*
X69818815Y-67278815D01*
X69739463Y-67375506D01*
X69680498Y-67485820D01*
X69644188Y-67605518D01*
X69631928Y-67730000D01*
X69631928Y-67820000D01*
X68894803Y-67820000D01*
X66800000Y-65725199D01*
X66800000Y-63327775D01*
X66891013Y-63266962D01*
X67076962Y-63081013D01*
X67223061Y-62862359D01*
X67323696Y-62619405D01*
X67375000Y-62361486D01*
X67375000Y-62098514D01*
X67323696Y-61840595D01*
X67223061Y-61597641D01*
X67076962Y-61378987D01*
X66891013Y-61193038D01*
X66672359Y-61046939D01*
X66429405Y-60946304D01*
X66171486Y-60895000D01*
X65908514Y-60895000D01*
X65650595Y-60946304D01*
X65407641Y-61046939D01*
X65188987Y-61193038D01*
X65003038Y-61378987D01*
X64856939Y-61597641D01*
X64756304Y-61840595D01*
X64705000Y-62098514D01*
X64705000Y-62361486D01*
X64756304Y-62619405D01*
X64856939Y-62862359D01*
X65003038Y-63081013D01*
X65188987Y-63266962D01*
X65280000Y-63327775D01*
X65280001Y-65725197D01*
X64923801Y-66081398D01*
X64891637Y-66075000D01*
X64648363Y-66075000D01*
X64409764Y-66122460D01*
X64185008Y-66215557D01*
X63982733Y-66350713D01*
X63810713Y-66522733D01*
X63675557Y-66725008D01*
X63582460Y-66949764D01*
X63535000Y-67188363D01*
X54293165Y-67188363D01*
X52633804Y-65529003D01*
X52610001Y-65499999D01*
X52502789Y-65412013D01*
X53061951Y-64852851D01*
X53112600Y-64868215D01*
X53340000Y-64890612D01*
X53567399Y-64868215D01*
X53786059Y-64801885D01*
X53975000Y-64700894D01*
X54163940Y-64801885D01*
X54382600Y-64868215D01*
X54610000Y-64890612D01*
X54837399Y-64868215D01*
X55046098Y-64804907D01*
X55110820Y-64839502D01*
X55230518Y-64875812D01*
X55355000Y-64888072D01*
X56405000Y-64888072D01*
X56529482Y-64875812D01*
X56649180Y-64839502D01*
X56759494Y-64780537D01*
X56856185Y-64701185D01*
X56935537Y-64604494D01*
X56994502Y-64494180D01*
X57030812Y-64374482D01*
X57042087Y-64260000D01*
X58105199Y-64260000D01*
X58376355Y-64531156D01*
X58355000Y-64638514D01*
X58355000Y-64901486D01*
X58406304Y-65159405D01*
X58506939Y-65402359D01*
X58653038Y-65621013D01*
X58838987Y-65806962D01*
X59057641Y-65953061D01*
X59300595Y-66053696D01*
X59558514Y-66105000D01*
X59821486Y-66105000D01*
X60079405Y-66053696D01*
X60322359Y-65953061D01*
X60541013Y-65806962D01*
X60726962Y-65621013D01*
X60873061Y-65402359D01*
X60973696Y-65159405D01*
X61025000Y-64901486D01*
X61025000Y-64638514D01*
X61003645Y-64531157D01*
X61471003Y-64063799D01*
X61500001Y-64040001D01*
X61594974Y-63924276D01*
X61665546Y-63792247D01*
X61709003Y-63648986D01*
X61720000Y-63537333D01*
X61720000Y-63537324D01*
X61723676Y-63500001D01*
X61720000Y-63462678D01*
X61720000Y-63327775D01*
X61811013Y-63266962D01*
X61996962Y-63081013D01*
X62143061Y-62862359D01*
X62243696Y-62619405D01*
X62295000Y-62361486D01*
X62295000Y-62098514D01*
X62243696Y-61840595D01*
X62143061Y-61597641D01*
X61996962Y-61378987D01*
X61811013Y-61193038D01*
X61592359Y-61046939D01*
X61349405Y-60946304D01*
X61091486Y-60895000D01*
X60828514Y-60895000D01*
X60570595Y-60946304D01*
X60327641Y-61046939D01*
X60108987Y-61193038D01*
X59923038Y-61378987D01*
X59776939Y-61597641D01*
X59676304Y-61840595D01*
X59625000Y-62098514D01*
X59625000Y-62361486D01*
X59676304Y-62619405D01*
X59776939Y-62862359D01*
X59923038Y-63081013D01*
X60108987Y-63266962D01*
X60114532Y-63270667D01*
X59928843Y-63456355D01*
X59821486Y-63435000D01*
X59558514Y-63435000D01*
X59451156Y-63456355D01*
X58983804Y-62989003D01*
X58960001Y-62959999D01*
X58844276Y-62865026D01*
X58712247Y-62794454D01*
X58568986Y-62750997D01*
X58457333Y-62740000D01*
X58457322Y-62740000D01*
X58420000Y-62736324D01*
X58382678Y-62740000D01*
X57042087Y-62740000D01*
X57030812Y-62625518D01*
X56994502Y-62505820D01*
X56935537Y-62395506D01*
X56856185Y-62298815D01*
X56759494Y-62219463D01*
X56649180Y-62160498D01*
X56529482Y-62124188D01*
X56405000Y-62111928D01*
X55355000Y-62111928D01*
X55230518Y-62124188D01*
X55110820Y-62160498D01*
X55046098Y-62195093D01*
X54837400Y-62131785D01*
X54610000Y-62109388D01*
X54382601Y-62131785D01*
X54163941Y-62198115D01*
X53975001Y-62299106D01*
X53786060Y-62198115D01*
X53567400Y-62131785D01*
X53340000Y-62109388D01*
X53112601Y-62131785D01*
X52893941Y-62198115D01*
X52692422Y-62305829D01*
X52515789Y-62450788D01*
X52370830Y-62627421D01*
X52263115Y-62828940D01*
X52196785Y-63047600D01*
X52180000Y-63218021D01*
X52180000Y-63585198D01*
X50485199Y-65280000D01*
X48478072Y-65280000D01*
X48478072Y-65190000D01*
X48465812Y-65065518D01*
X48429502Y-64945820D01*
X48370537Y-64835506D01*
X48291185Y-64738815D01*
X48194494Y-64659463D01*
X48084180Y-64600498D01*
X47964482Y-64564188D01*
X47840000Y-64551928D01*
X46140000Y-64551928D01*
X46015518Y-64564188D01*
X45895820Y-64600498D01*
X45785506Y-64659463D01*
X45688815Y-64738815D01*
X45609463Y-64835506D01*
X45550498Y-64945820D01*
X45514188Y-65065518D01*
X45501928Y-65190000D01*
X43307000Y-65190000D01*
X43307000Y-58547000D01*
X73533000Y-58547000D01*
X73533000Y-87503000D01*
%TA.AperFunction,Conductor*%
D19*
G36*
X73533000Y-87503000D02*
G01*
X43307000Y-87503000D01*
X43307000Y-85399764D01*
X66639841Y-85399764D01*
X66687148Y-85623348D01*
X66908516Y-85724237D01*
X67145313Y-85780000D01*
X67388438Y-85788495D01*
X67628549Y-85749395D01*
X67856418Y-85664202D01*
X67932852Y-85623348D01*
X67980159Y-85399764D01*
X67310000Y-84729605D01*
X66639841Y-85399764D01*
X43307000Y-85399764D01*
X43307000Y-84176890D01*
X45548524Y-84176890D01*
X45593175Y-84324099D01*
X45718359Y-84586920D01*
X45892412Y-84820269D01*
X46108645Y-85015178D01*
X46358748Y-85164157D01*
X46633109Y-85261481D01*
X46863000Y-85140814D01*
X46863000Y-83947000D01*
X47117000Y-83947000D01*
X47117000Y-85140814D01*
X47346891Y-85261481D01*
X47621252Y-85164157D01*
X47871355Y-85015178D01*
X48087588Y-84820269D01*
X48230673Y-84628438D01*
X66071505Y-84628438D01*
X66110605Y-84868549D01*
X66195798Y-85096418D01*
X66236652Y-85172852D01*
X66460236Y-85220159D01*
X67130395Y-84550000D01*
X67489605Y-84550000D01*
X68159764Y-85220159D01*
X68383348Y-85172852D01*
X68484237Y-84951484D01*
X68540000Y-84714687D01*
X68548495Y-84471562D01*
X68509395Y-84231451D01*
X68424202Y-84003582D01*
X68383348Y-83927148D01*
X68159764Y-83879841D01*
X67489605Y-84550000D01*
X67130395Y-84550000D01*
X66460236Y-83879841D01*
X66236652Y-83927148D01*
X66135763Y-84148516D01*
X66080000Y-84385313D01*
X66071505Y-84628438D01*
X48230673Y-84628438D01*
X48261641Y-84586920D01*
X48386825Y-84324099D01*
X48431476Y-84176890D01*
X48310155Y-83947000D01*
X47117000Y-83947000D01*
X46863000Y-83947000D01*
X45669845Y-83947000D01*
X45548524Y-84176890D01*
X43307000Y-84176890D01*
X43307000Y-81636890D01*
X45548524Y-81636890D01*
X45593175Y-81784099D01*
X45718359Y-82046920D01*
X45892412Y-82280269D01*
X46108645Y-82475178D01*
X46234255Y-82550000D01*
X46108645Y-82624822D01*
X45892412Y-82819731D01*
X45718359Y-83053080D01*
X45593175Y-83315901D01*
X45548524Y-83463110D01*
X45669845Y-83693000D01*
X46863000Y-83693000D01*
X46863000Y-81407000D01*
X47117000Y-81407000D01*
X47117000Y-83693000D01*
X48310155Y-83693000D01*
X48431476Y-83463110D01*
X48386825Y-83315901D01*
X48261641Y-83053080D01*
X48087588Y-82819731D01*
X47871355Y-82624822D01*
X47745745Y-82550000D01*
X47871355Y-82475178D01*
X48087588Y-82280269D01*
X48261641Y-82046920D01*
X48386825Y-81784099D01*
X48412333Y-81700000D01*
X50581928Y-81700000D01*
X50581928Y-83400000D01*
X50594188Y-83524482D01*
X50630498Y-83644180D01*
X50689463Y-83754494D01*
X50768815Y-83851185D01*
X50865506Y-83930537D01*
X50975820Y-83989502D01*
X51095518Y-84025812D01*
X51220000Y-84038072D01*
X52920000Y-84038072D01*
X53044482Y-84025812D01*
X53164180Y-83989502D01*
X53274494Y-83930537D01*
X53371185Y-83851185D01*
X53450537Y-83754494D01*
X53509502Y-83644180D01*
X53545812Y-83524482D01*
X53558072Y-83400000D01*
X53558072Y-81700000D01*
X53545812Y-81575518D01*
X53509502Y-81455820D01*
X53450537Y-81345506D01*
X53371185Y-81248815D01*
X53274494Y-81169463D01*
X53164180Y-81110498D01*
X53044482Y-81074188D01*
X52920000Y-81061928D01*
X52830000Y-81061928D01*
X52830000Y-79054801D01*
X53186199Y-78698602D01*
X53218363Y-78705000D01*
X53461637Y-78705000D01*
X53700236Y-78657540D01*
X53924992Y-78564443D01*
X54127267Y-78429287D01*
X54299287Y-78257267D01*
X54308571Y-78243372D01*
X57260000Y-81194802D01*
X57260000Y-81561978D01*
X57276785Y-81732399D01*
X57343115Y-81951059D01*
X57450829Y-82152578D01*
X57595788Y-82329212D01*
X57772421Y-82474171D01*
X57973940Y-82581885D01*
X58192600Y-82648215D01*
X58420000Y-82670612D01*
X58647399Y-82648215D01*
X58866059Y-82581885D01*
X59055000Y-82480894D01*
X59243940Y-82581885D01*
X59462600Y-82648215D01*
X59690000Y-82670612D01*
X59917399Y-82648215D01*
X60126098Y-82584907D01*
X60190820Y-82619502D01*
X60310518Y-82655812D01*
X60435000Y-82668072D01*
X61485000Y-82668072D01*
X61609482Y-82655812D01*
X61729180Y-82619502D01*
X61839494Y-82560537D01*
X61936185Y-82481185D01*
X62015537Y-82384494D01*
X62074502Y-82274180D01*
X62110812Y-82154482D01*
X62123072Y-82030000D01*
X62123072Y-80530000D01*
X62110812Y-80405518D01*
X62074502Y-80285820D01*
X62015537Y-80175506D01*
X61936185Y-80078815D01*
X61839494Y-79999463D01*
X61729180Y-79940498D01*
X61720000Y-79937713D01*
X61720000Y-78567775D01*
X61811013Y-78506962D01*
X61996962Y-78321013D01*
X62057775Y-78230000D01*
X63185199Y-78230000D01*
X63456355Y-78501156D01*
X63435000Y-78608514D01*
X63435000Y-78871486D01*
X63486304Y-79129405D01*
X63586939Y-79372359D01*
X63733038Y-79591013D01*
X63918987Y-79776962D01*
X64137641Y-79923061D01*
X64380595Y-80023696D01*
X64638514Y-80075000D01*
X64901486Y-80075000D01*
X65159405Y-80023696D01*
X65402359Y-79923061D01*
X65621013Y-79776962D01*
X65806962Y-79591013D01*
X65953061Y-79372359D01*
X66053696Y-79129405D01*
X66105000Y-78871486D01*
X66105000Y-78608514D01*
X66053696Y-78350595D01*
X65953061Y-78107641D01*
X65806962Y-77888987D01*
X65621013Y-77703038D01*
X65402359Y-77556939D01*
X65159405Y-77456304D01*
X64901486Y-77405000D01*
X64638514Y-77405000D01*
X64531156Y-77426355D01*
X64063804Y-76959003D01*
X64040001Y-76929999D01*
X63924276Y-76835026D01*
X63792247Y-76764454D01*
X63648986Y-76720997D01*
X63537333Y-76710000D01*
X63537322Y-76710000D01*
X63500000Y-76706324D01*
X63462678Y-76710000D01*
X62057775Y-76710000D01*
X61996962Y-76618987D01*
X61811013Y-76433038D01*
X61592359Y-76286939D01*
X61349405Y-76186304D01*
X61091486Y-76135000D01*
X60828514Y-76135000D01*
X60570595Y-76186304D01*
X60327641Y-76286939D01*
X60108987Y-76433038D01*
X59923038Y-76618987D01*
X59776939Y-76837641D01*
X59676304Y-77080595D01*
X59625000Y-77338514D01*
X59625000Y-77601486D01*
X59676304Y-77859405D01*
X59776939Y-78102359D01*
X59923038Y-78321013D01*
X60108987Y-78506962D01*
X60200000Y-78567775D01*
X60200001Y-79937713D01*
X60190820Y-79940498D01*
X60126098Y-79975093D01*
X59917400Y-79911785D01*
X59690000Y-79889388D01*
X59462601Y-79911785D01*
X59243941Y-79978115D01*
X59055001Y-80079106D01*
X58866060Y-79978115D01*
X58647400Y-79911785D01*
X58420000Y-79889388D01*
X58192601Y-79911785D01*
X58141951Y-79927149D01*
X55173804Y-76959003D01*
X55150001Y-76929999D01*
X55034276Y-76835026D01*
X54902247Y-76764454D01*
X54758986Y-76720997D01*
X54647333Y-76710000D01*
X54647322Y-76710000D01*
X54610000Y-76706324D01*
X54572678Y-76710000D01*
X54317506Y-76710000D01*
X54299287Y-76682733D01*
X54127267Y-76510713D01*
X53989267Y-76418504D01*
X54010159Y-76319764D01*
X53340000Y-75649605D01*
X52669841Y-76319764D01*
X52690733Y-76418504D01*
X52552733Y-76510713D01*
X52380713Y-76682733D01*
X52245557Y-76885008D01*
X52152460Y-77109764D01*
X52105000Y-77348363D01*
X52105000Y-77591637D01*
X52111398Y-77623801D01*
X51558998Y-78176201D01*
X51530000Y-78199999D01*
X51506202Y-78228997D01*
X51506201Y-78228998D01*
X51435026Y-78315724D01*
X51364454Y-78447754D01*
X51346494Y-78506962D01*
X51320999Y-78591013D01*
X51320998Y-78591015D01*
X51306324Y-78740000D01*
X51310001Y-78777332D01*
X51310000Y-81061928D01*
X51220000Y-81061928D01*
X51095518Y-81074188D01*
X50975820Y-81110498D01*
X50865506Y-81169463D01*
X50768815Y-81248815D01*
X50689463Y-81345506D01*
X50630498Y-81455820D01*
X50594188Y-81575518D01*
X50581928Y-81700000D01*
X48412333Y-81700000D01*
X48431476Y-81636890D01*
X48310155Y-81407000D01*
X47117000Y-81407000D01*
X46863000Y-81407000D01*
X45669845Y-81407000D01*
X45548524Y-81636890D01*
X43307000Y-81636890D01*
X43307000Y-79096890D01*
X45548524Y-79096890D01*
X45593175Y-79244099D01*
X45718359Y-79506920D01*
X45892412Y-79740269D01*
X46108645Y-79935178D01*
X46234255Y-80010000D01*
X46108645Y-80084822D01*
X45892412Y-80279731D01*
X45718359Y-80513080D01*
X45593175Y-80775901D01*
X45548524Y-80923110D01*
X45669845Y-81153000D01*
X46863000Y-81153000D01*
X46863000Y-78867000D01*
X47117000Y-78867000D01*
X47117000Y-81153000D01*
X48310155Y-81153000D01*
X48431476Y-80923110D01*
X48386825Y-80775901D01*
X48261641Y-80513080D01*
X48087588Y-80279731D01*
X47871355Y-80084822D01*
X47745745Y-80010000D01*
X47871355Y-79935178D01*
X48087588Y-79740269D01*
X48261641Y-79506920D01*
X48386825Y-79244099D01*
X48431476Y-79096890D01*
X48310155Y-78867000D01*
X47117000Y-78867000D01*
X46863000Y-78867000D01*
X45669845Y-78867000D01*
X45548524Y-79096890D01*
X43307000Y-79096890D01*
X43307000Y-76556890D01*
X45548524Y-76556890D01*
X45593175Y-76704099D01*
X45718359Y-76966920D01*
X45892412Y-77200269D01*
X46108645Y-77395178D01*
X46234255Y-77470000D01*
X46108645Y-77544822D01*
X45892412Y-77739731D01*
X45718359Y-77973080D01*
X45593175Y-78235901D01*
X45548524Y-78383110D01*
X45669845Y-78613000D01*
X46863000Y-78613000D01*
X46863000Y-76327000D01*
X47117000Y-76327000D01*
X47117000Y-78613000D01*
X48310155Y-78613000D01*
X48431476Y-78383110D01*
X48386825Y-78235901D01*
X48261641Y-77973080D01*
X48087588Y-77739731D01*
X47871355Y-77544822D01*
X47745745Y-77470000D01*
X47871355Y-77395178D01*
X48087588Y-77200269D01*
X48261641Y-76966920D01*
X48386825Y-76704099D01*
X48431476Y-76556890D01*
X48310155Y-76327000D01*
X47117000Y-76327000D01*
X46863000Y-76327000D01*
X45669845Y-76327000D01*
X45548524Y-76556890D01*
X43307000Y-76556890D01*
X43307000Y-74016890D01*
X45548524Y-74016890D01*
X45593175Y-74164099D01*
X45718359Y-74426920D01*
X45892412Y-74660269D01*
X46108645Y-74855178D01*
X46234255Y-74930000D01*
X46108645Y-75004822D01*
X45892412Y-75199731D01*
X45718359Y-75433080D01*
X45593175Y-75695901D01*
X45548524Y-75843110D01*
X45669845Y-76073000D01*
X46863000Y-76073000D01*
X46863000Y-73787000D01*
X47117000Y-73787000D01*
X47117000Y-76073000D01*
X48310155Y-76073000D01*
X48431476Y-75843110D01*
X48386825Y-75695901D01*
X48316588Y-75548438D01*
X52101505Y-75548438D01*
X52140605Y-75788549D01*
X52225798Y-76016418D01*
X52266652Y-76092852D01*
X52490236Y-76140159D01*
X53160395Y-75470000D01*
X53519605Y-75470000D01*
X54189764Y-76140159D01*
X54413348Y-76092852D01*
X54514237Y-75871484D01*
X54570000Y-75634687D01*
X54578495Y-75391562D01*
X54539395Y-75151451D01*
X54454202Y-74923582D01*
X54413348Y-74847148D01*
X54189764Y-74799841D01*
X53519605Y-75470000D01*
X53160395Y-75470000D01*
X52490236Y-74799841D01*
X52266652Y-74847148D01*
X52165763Y-75068516D01*
X52110000Y-75305313D01*
X52101505Y-75548438D01*
X48316588Y-75548438D01*
X48261641Y-75433080D01*
X48087588Y-75199731D01*
X47871355Y-75004822D01*
X47745745Y-74930000D01*
X47871355Y-74855178D01*
X48087588Y-74660269D01*
X48117448Y-74620236D01*
X52669841Y-74620236D01*
X53340000Y-75290395D01*
X54010159Y-74620236D01*
X53962852Y-74396652D01*
X53741484Y-74295763D01*
X53504687Y-74240000D01*
X53261562Y-74231505D01*
X53021451Y-74270605D01*
X52793582Y-74355798D01*
X52717148Y-74396652D01*
X52669841Y-74620236D01*
X48117448Y-74620236D01*
X48261641Y-74426920D01*
X48386825Y-74164099D01*
X48431476Y-74016890D01*
X48310155Y-73787000D01*
X47117000Y-73787000D01*
X46863000Y-73787000D01*
X45669845Y-73787000D01*
X45548524Y-74016890D01*
X43307000Y-74016890D01*
X43307000Y-71970000D01*
X45501928Y-71970000D01*
X45514188Y-72094482D01*
X45550498Y-72214180D01*
X45609463Y-72324494D01*
X45688815Y-72421185D01*
X45785506Y-72500537D01*
X45895820Y-72559502D01*
X45976466Y-72583966D01*
X45892412Y-72659731D01*
X45718359Y-72893080D01*
X45593175Y-73155901D01*
X45548524Y-73303110D01*
X45669845Y-73533000D01*
X46863000Y-73533000D01*
X46863000Y-71247000D01*
X47117000Y-71247000D01*
X47117000Y-73533000D01*
X48310155Y-73533000D01*
X48431476Y-73303110D01*
X48386825Y-73155901D01*
X48261641Y-72893080D01*
X48135026Y-72723330D01*
X59667278Y-72723330D01*
X59757147Y-72969123D01*
X59893241Y-73192660D01*
X60070330Y-73385351D01*
X60281608Y-73539792D01*
X60518956Y-73650047D01*
X60626671Y-73682716D01*
X60833000Y-73559374D01*
X60833000Y-72517000D01*
X61087000Y-72517000D01*
X61087000Y-73559374D01*
X61293329Y-73682716D01*
X61401044Y-73650047D01*
X61638392Y-73539792D01*
X61653820Y-73528514D01*
X63435000Y-73528514D01*
X63435000Y-73791486D01*
X63486304Y-74049405D01*
X63586939Y-74292359D01*
X63733038Y-74511013D01*
X63918987Y-74696962D01*
X64137641Y-74843061D01*
X64380595Y-74943696D01*
X64638514Y-74995000D01*
X64901486Y-74995000D01*
X65159405Y-74943696D01*
X65402359Y-74843061D01*
X65621013Y-74696962D01*
X65806962Y-74511013D01*
X65867775Y-74420000D01*
X68265199Y-74420000D01*
X69631928Y-75786730D01*
X69631928Y-76613270D01*
X66798998Y-79446201D01*
X66770000Y-79469999D01*
X66746202Y-79498997D01*
X66746201Y-79498998D01*
X66675026Y-79585724D01*
X66604454Y-79717754D01*
X66586494Y-79776962D01*
X66560998Y-79861014D01*
X66554887Y-79923061D01*
X66546324Y-80010000D01*
X66550001Y-80047332D01*
X66550000Y-81572493D01*
X66522733Y-81590713D01*
X66350713Y-81762733D01*
X66215557Y-81965008D01*
X66122460Y-82189764D01*
X66075000Y-82428363D01*
X66075000Y-82671637D01*
X66122460Y-82910236D01*
X66215557Y-83134992D01*
X66350713Y-83337267D01*
X66522733Y-83509287D01*
X66660733Y-83601496D01*
X66639841Y-83700236D01*
X67310000Y-84370395D01*
X67980159Y-83700236D01*
X67959267Y-83601496D01*
X68097267Y-83509287D01*
X68269287Y-83337267D01*
X68404443Y-83134992D01*
X68497540Y-82910236D01*
X68545000Y-82671637D01*
X68545000Y-82428363D01*
X68497540Y-82189764D01*
X68404443Y-81965008D01*
X68269287Y-81762733D01*
X68097267Y-81590713D01*
X68070000Y-81572494D01*
X68070000Y-80324801D01*
X69635000Y-78759801D01*
X69635000Y-78867002D01*
X69799844Y-78867002D01*
X69678524Y-79096890D01*
X69723175Y-79244099D01*
X69848359Y-79506920D01*
X70022412Y-79740269D01*
X70238645Y-79935178D01*
X70488748Y-80084157D01*
X70763109Y-80181481D01*
X70993000Y-80060814D01*
X70993000Y-78867000D01*
X71247000Y-78867000D01*
X71247000Y-80060814D01*
X71476891Y-80181481D01*
X71751252Y-80084157D01*
X72001355Y-79935178D01*
X72217588Y-79740269D01*
X72391641Y-79506920D01*
X72516825Y-79244099D01*
X72561476Y-79096890D01*
X72440155Y-78867000D01*
X71247000Y-78867000D01*
X70993000Y-78867000D01*
X70973000Y-78867000D01*
X70973000Y-78613000D01*
X70993000Y-78613000D01*
X70993000Y-78593000D01*
X71247000Y-78593000D01*
X71247000Y-78613000D01*
X72440155Y-78613000D01*
X72561476Y-78383110D01*
X72516825Y-78235901D01*
X72391641Y-77973080D01*
X72217588Y-77739731D01*
X72133534Y-77663966D01*
X72214180Y-77639502D01*
X72324494Y-77580537D01*
X72421185Y-77501185D01*
X72500537Y-77404494D01*
X72559502Y-77294180D01*
X72595812Y-77174482D01*
X72608072Y-77050000D01*
X72608072Y-75350000D01*
X72595812Y-75225518D01*
X72559502Y-75105820D01*
X72500537Y-74995506D01*
X72421185Y-74898815D01*
X72324494Y-74819463D01*
X72214180Y-74760498D01*
X72094482Y-74724188D01*
X71970000Y-74711928D01*
X70706730Y-74711928D01*
X69143804Y-73149003D01*
X69120001Y-73119999D01*
X69004276Y-73025026D01*
X68872247Y-72954454D01*
X68728986Y-72910997D01*
X68617333Y-72900000D01*
X68617322Y-72900000D01*
X68580000Y-72896324D01*
X68542678Y-72900000D01*
X65867775Y-72900000D01*
X65806962Y-72808987D01*
X65621013Y-72623038D01*
X65402359Y-72476939D01*
X65159405Y-72376304D01*
X64901486Y-72325000D01*
X64638514Y-72325000D01*
X64380595Y-72376304D01*
X64137641Y-72476939D01*
X63918987Y-72623038D01*
X63733038Y-72808987D01*
X63586939Y-73027641D01*
X63486304Y-73270595D01*
X63435000Y-73528514D01*
X61653820Y-73528514D01*
X61849670Y-73385351D01*
X62026759Y-73192660D01*
X62162853Y-72969123D01*
X62252722Y-72723330D01*
X62130201Y-72517000D01*
X61087000Y-72517000D01*
X60833000Y-72517000D01*
X59789799Y-72517000D01*
X59667278Y-72723330D01*
X48135026Y-72723330D01*
X48087588Y-72659731D01*
X48003534Y-72583966D01*
X48084180Y-72559502D01*
X48194494Y-72500537D01*
X48291185Y-72421185D01*
X48370537Y-72324494D01*
X48429502Y-72214180D01*
X48465812Y-72094482D01*
X48469536Y-72056670D01*
X59667278Y-72056670D01*
X59789799Y-72263000D01*
X60833000Y-72263000D01*
X60833000Y-71220626D01*
X61087000Y-71220626D01*
X61087000Y-72263000D01*
X62130201Y-72263000D01*
X62252722Y-72056670D01*
X62162853Y-71810877D01*
X62026759Y-71587340D01*
X61925253Y-71476890D01*
X69678524Y-71476890D01*
X69723175Y-71624099D01*
X69848359Y-71886920D01*
X70022412Y-72120269D01*
X70238645Y-72315178D01*
X70488748Y-72464157D01*
X70763109Y-72561481D01*
X70993000Y-72440814D01*
X70993000Y-71247000D01*
X71247000Y-71247000D01*
X71247000Y-72440814D01*
X71476891Y-72561481D01*
X71751252Y-72464157D01*
X72001355Y-72315178D01*
X72217588Y-72120269D01*
X72391641Y-71886920D01*
X72516825Y-71624099D01*
X72561476Y-71476890D01*
X72440155Y-71247000D01*
X71247000Y-71247000D01*
X70993000Y-71247000D01*
X69799845Y-71247000D01*
X69678524Y-71476890D01*
X61925253Y-71476890D01*
X61849670Y-71394649D01*
X61638392Y-71240208D01*
X61401044Y-71129953D01*
X61293329Y-71097284D01*
X61087000Y-71220626D01*
X60833000Y-71220626D01*
X60626671Y-71097284D01*
X60518956Y-71129953D01*
X60281608Y-71240208D01*
X60070330Y-71394649D01*
X59893241Y-71587340D01*
X59757147Y-71810877D01*
X59667278Y-72056670D01*
X48469536Y-72056670D01*
X48478072Y-71970000D01*
X48475131Y-71429764D01*
X53939841Y-71429764D01*
X53987148Y-71653348D01*
X54208516Y-71754237D01*
X54445313Y-71810000D01*
X54688438Y-71818495D01*
X54928549Y-71779395D01*
X55156418Y-71694202D01*
X55232852Y-71653348D01*
X55280159Y-71429764D01*
X54610000Y-70759605D01*
X53939841Y-71429764D01*
X48475131Y-71429764D01*
X48475000Y-71405750D01*
X48316250Y-71247000D01*
X47117000Y-71247000D01*
X46863000Y-71247000D01*
X45663750Y-71247000D01*
X45505000Y-71405750D01*
X45501928Y-71970000D01*
X43307000Y-71970000D01*
X43307000Y-70270000D01*
X45501928Y-70270000D01*
X45505000Y-70834250D01*
X45663750Y-70993000D01*
X46863000Y-70993000D01*
X46863000Y-69793750D01*
X47117000Y-69793750D01*
X47117000Y-70993000D01*
X48316250Y-70993000D01*
X48475000Y-70834250D01*
X48475957Y-70658438D01*
X53371505Y-70658438D01*
X53410605Y-70898549D01*
X53495798Y-71126418D01*
X53536652Y-71202852D01*
X53760236Y-71250159D01*
X54430395Y-70580000D01*
X54789605Y-70580000D01*
X55459764Y-71250159D01*
X55683348Y-71202852D01*
X55784237Y-70981484D01*
X55840000Y-70744687D01*
X55848495Y-70501562D01*
X55809395Y-70261451D01*
X55780189Y-70183330D01*
X58397278Y-70183330D01*
X58487147Y-70429123D01*
X58623241Y-70652660D01*
X58800330Y-70845351D01*
X59011608Y-70999792D01*
X59248956Y-71110047D01*
X59356671Y-71142716D01*
X59563000Y-71019374D01*
X59563000Y-69977000D01*
X59817000Y-69977000D01*
X59817000Y-71019374D01*
X60023329Y-71142716D01*
X60131044Y-71110047D01*
X60368392Y-70999792D01*
X60579670Y-70845351D01*
X60756759Y-70652660D01*
X60892853Y-70429123D01*
X60982722Y-70183330D01*
X60968729Y-70159764D01*
X64099841Y-70159764D01*
X64147148Y-70383348D01*
X64368516Y-70484237D01*
X64605313Y-70540000D01*
X64848438Y-70548495D01*
X65088549Y-70509395D01*
X65316418Y-70424202D01*
X65392852Y-70383348D01*
X65440159Y-70159764D01*
X64770000Y-69489605D01*
X64099841Y-70159764D01*
X60968729Y-70159764D01*
X60860201Y-69977000D01*
X59817000Y-69977000D01*
X59563000Y-69977000D01*
X58519799Y-69977000D01*
X58397278Y-70183330D01*
X55780189Y-70183330D01*
X55724202Y-70033582D01*
X55683348Y-69957148D01*
X55459764Y-69909841D01*
X54789605Y-70580000D01*
X54430395Y-70580000D01*
X53760236Y-69909841D01*
X53536652Y-69957148D01*
X53435763Y-70178516D01*
X53380000Y-70415313D01*
X53371505Y-70658438D01*
X48475957Y-70658438D01*
X48478072Y-70270000D01*
X48465812Y-70145518D01*
X48429502Y-70025820D01*
X48370537Y-69915506D01*
X48291185Y-69818815D01*
X48194494Y-69739463D01*
X48084180Y-69680498D01*
X47964482Y-69644188D01*
X47840000Y-69631928D01*
X47275750Y-69635000D01*
X47117000Y-69793750D01*
X46863000Y-69793750D01*
X46704250Y-69635000D01*
X46140000Y-69631928D01*
X46015518Y-69644188D01*
X45895820Y-69680498D01*
X45785506Y-69739463D01*
X45688815Y-69818815D01*
X45609463Y-69915506D01*
X45550498Y-70025820D01*
X45514188Y-70145518D01*
X45501928Y-70270000D01*
X43307000Y-70270000D01*
X43307000Y-65190000D01*
X45501928Y-65190000D01*
X45501928Y-66890000D01*
X45514188Y-67014482D01*
X45550498Y-67134180D01*
X45609463Y-67244494D01*
X45688815Y-67341185D01*
X45785506Y-67420537D01*
X45895820Y-67479502D01*
X46015518Y-67515812D01*
X46140000Y-67528072D01*
X47840000Y-67528072D01*
X47964482Y-67515812D01*
X48084180Y-67479502D01*
X48194494Y-67420537D01*
X48291185Y-67341185D01*
X48370537Y-67244494D01*
X48429502Y-67134180D01*
X48465812Y-67014482D01*
X48478072Y-66890000D01*
X48478072Y-66800000D01*
X50762678Y-66800000D01*
X50800000Y-66803676D01*
X50837322Y-66800000D01*
X51755199Y-66800000D01*
X53381398Y-68426200D01*
X53375000Y-68458363D01*
X53375000Y-68701637D01*
X53422460Y-68940236D01*
X53515557Y-69164992D01*
X53650713Y-69367267D01*
X53822733Y-69539287D01*
X53960733Y-69631496D01*
X53939841Y-69730236D01*
X54610000Y-70400395D01*
X55280159Y-69730236D01*
X55259267Y-69631496D01*
X55397267Y-69539287D01*
X55419884Y-69516670D01*
X58397278Y-69516670D01*
X58519799Y-69723000D01*
X59563000Y-69723000D01*
X59563000Y-68680626D01*
X59817000Y-68680626D01*
X59817000Y-69723000D01*
X60860201Y-69723000D01*
X60982722Y-69516670D01*
X60935837Y-69388438D01*
X63531505Y-69388438D01*
X63570605Y-69628549D01*
X63655798Y-69856418D01*
X63696652Y-69932852D01*
X63920236Y-69980159D01*
X64590395Y-69310000D01*
X64949605Y-69310000D01*
X65619764Y-69980159D01*
X65843348Y-69932852D01*
X65944237Y-69711484D01*
X66000000Y-69474687D01*
X66008495Y-69231562D01*
X65969395Y-68991451D01*
X65884202Y-68763582D01*
X65843348Y-68687148D01*
X65619764Y-68639841D01*
X64949605Y-69310000D01*
X64590395Y-69310000D01*
X63920236Y-68639841D01*
X63696652Y-68687148D01*
X63595763Y-68908516D01*
X63540000Y-69145313D01*
X63531505Y-69388438D01*
X60935837Y-69388438D01*
X60892853Y-69270877D01*
X60756759Y-69047340D01*
X60579670Y-68854649D01*
X60368392Y-68700208D01*
X60131044Y-68589953D01*
X60023329Y-68557284D01*
X59817000Y-68680626D01*
X59563000Y-68680626D01*
X59356671Y-68557284D01*
X59248956Y-68589953D01*
X59011608Y-68700208D01*
X58800330Y-68854649D01*
X58623241Y-69047340D01*
X58487147Y-69270877D01*
X58397278Y-69516670D01*
X55419884Y-69516670D01*
X55569287Y-69367267D01*
X55704443Y-69164992D01*
X55797540Y-68940236D01*
X55845000Y-68701637D01*
X55845000Y-68458363D01*
X55797540Y-68219764D01*
X55704443Y-67995008D01*
X55569287Y-67792733D01*
X55397267Y-67620713D01*
X55194992Y-67485557D01*
X54970236Y-67392460D01*
X54731637Y-67345000D01*
X54488363Y-67345000D01*
X54456200Y-67351398D01*
X54293165Y-67188363D01*
X63535000Y-67188363D01*
X63535000Y-67431637D01*
X63582460Y-67670236D01*
X63675557Y-67894992D01*
X63810713Y-68097267D01*
X63982733Y-68269287D01*
X64120733Y-68361496D01*
X64099841Y-68460236D01*
X64770000Y-69130395D01*
X65440159Y-68460236D01*
X65419267Y-68361496D01*
X65557267Y-68269287D01*
X65729287Y-68097267D01*
X65864443Y-67894992D01*
X65957540Y-67670236D01*
X66005000Y-67431637D01*
X66005000Y-67188363D01*
X65998602Y-67156199D01*
X66040000Y-67114802D01*
X68016205Y-69091008D01*
X68039999Y-69120001D01*
X68068992Y-69143795D01*
X68068996Y-69143799D01*
X68139685Y-69201811D01*
X68155724Y-69214974D01*
X68287753Y-69285546D01*
X68431014Y-69329003D01*
X68542667Y-69340000D01*
X68542676Y-69340000D01*
X68579999Y-69343676D01*
X68617322Y-69340000D01*
X69631928Y-69340000D01*
X69631928Y-69430000D01*
X69644188Y-69554482D01*
X69680498Y-69674180D01*
X69739463Y-69784494D01*
X69818815Y-69881185D01*
X69915506Y-69960537D01*
X70025820Y-70019502D01*
X70106466Y-70043966D01*
X70022412Y-70119731D01*
X69848359Y-70353080D01*
X69723175Y-70615901D01*
X69678524Y-70763110D01*
X69799845Y-70993000D01*
X70993000Y-70993000D01*
X70993000Y-70973000D01*
X71247000Y-70973000D01*
X71247000Y-70993000D01*
X72440155Y-70993000D01*
X72561476Y-70763110D01*
X72516825Y-70615901D01*
X72391641Y-70353080D01*
X72217588Y-70119731D01*
X72133534Y-70043966D01*
X72214180Y-70019502D01*
X72324494Y-69960537D01*
X72421185Y-69881185D01*
X72500537Y-69784494D01*
X72559502Y-69674180D01*
X72595812Y-69554482D01*
X72608072Y-69430000D01*
X72608072Y-67730000D01*
X72595812Y-67605518D01*
X72559502Y-67485820D01*
X72500537Y-67375506D01*
X72421185Y-67278815D01*
X72324494Y-67199463D01*
X72214180Y-67140498D01*
X72094482Y-67104188D01*
X71970000Y-67091928D01*
X70270000Y-67091928D01*
X70145518Y-67104188D01*
X70025820Y-67140498D01*
X69915506Y-67199463D01*
X69818815Y-67278815D01*
X69739463Y-67375506D01*
X69680498Y-67485820D01*
X69644188Y-67605518D01*
X69631928Y-67730000D01*
X69631928Y-67820000D01*
X68894803Y-67820000D01*
X66800000Y-65725199D01*
X66800000Y-63327775D01*
X66891013Y-63266962D01*
X67076962Y-63081013D01*
X67223061Y-62862359D01*
X67323696Y-62619405D01*
X67375000Y-62361486D01*
X67375000Y-62098514D01*
X67323696Y-61840595D01*
X67223061Y-61597641D01*
X67076962Y-61378987D01*
X66891013Y-61193038D01*
X66672359Y-61046939D01*
X66429405Y-60946304D01*
X66171486Y-60895000D01*
X65908514Y-60895000D01*
X65650595Y-60946304D01*
X65407641Y-61046939D01*
X65188987Y-61193038D01*
X65003038Y-61378987D01*
X64856939Y-61597641D01*
X64756304Y-61840595D01*
X64705000Y-62098514D01*
X64705000Y-62361486D01*
X64756304Y-62619405D01*
X64856939Y-62862359D01*
X65003038Y-63081013D01*
X65188987Y-63266962D01*
X65280000Y-63327775D01*
X65280001Y-65725197D01*
X64923801Y-66081398D01*
X64891637Y-66075000D01*
X64648363Y-66075000D01*
X64409764Y-66122460D01*
X64185008Y-66215557D01*
X63982733Y-66350713D01*
X63810713Y-66522733D01*
X63675557Y-66725008D01*
X63582460Y-66949764D01*
X63535000Y-67188363D01*
X54293165Y-67188363D01*
X52633804Y-65529003D01*
X52610001Y-65499999D01*
X52502789Y-65412013D01*
X53061951Y-64852851D01*
X53112600Y-64868215D01*
X53340000Y-64890612D01*
X53567399Y-64868215D01*
X53786059Y-64801885D01*
X53975000Y-64700894D01*
X54163940Y-64801885D01*
X54382600Y-64868215D01*
X54610000Y-64890612D01*
X54837399Y-64868215D01*
X55046098Y-64804907D01*
X55110820Y-64839502D01*
X55230518Y-64875812D01*
X55355000Y-64888072D01*
X56405000Y-64888072D01*
X56529482Y-64875812D01*
X56649180Y-64839502D01*
X56759494Y-64780537D01*
X56856185Y-64701185D01*
X56935537Y-64604494D01*
X56994502Y-64494180D01*
X57030812Y-64374482D01*
X57042087Y-64260000D01*
X58105199Y-64260000D01*
X58376355Y-64531156D01*
X58355000Y-64638514D01*
X58355000Y-64901486D01*
X58406304Y-65159405D01*
X58506939Y-65402359D01*
X58653038Y-65621013D01*
X58838987Y-65806962D01*
X59057641Y-65953061D01*
X59300595Y-66053696D01*
X59558514Y-66105000D01*
X59821486Y-66105000D01*
X60079405Y-66053696D01*
X60322359Y-65953061D01*
X60541013Y-65806962D01*
X60726962Y-65621013D01*
X60873061Y-65402359D01*
X60973696Y-65159405D01*
X61025000Y-64901486D01*
X61025000Y-64638514D01*
X61003645Y-64531157D01*
X61471003Y-64063799D01*
X61500001Y-64040001D01*
X61594974Y-63924276D01*
X61665546Y-63792247D01*
X61709003Y-63648986D01*
X61720000Y-63537333D01*
X61720000Y-63537324D01*
X61723676Y-63500001D01*
X61720000Y-63462678D01*
X61720000Y-63327775D01*
X61811013Y-63266962D01*
X61996962Y-63081013D01*
X62143061Y-62862359D01*
X62243696Y-62619405D01*
X62295000Y-62361486D01*
X62295000Y-62098514D01*
X62243696Y-61840595D01*
X62143061Y-61597641D01*
X61996962Y-61378987D01*
X61811013Y-61193038D01*
X61592359Y-61046939D01*
X61349405Y-60946304D01*
X61091486Y-60895000D01*
X60828514Y-60895000D01*
X60570595Y-60946304D01*
X60327641Y-61046939D01*
X60108987Y-61193038D01*
X59923038Y-61378987D01*
X59776939Y-61597641D01*
X59676304Y-61840595D01*
X59625000Y-62098514D01*
X59625000Y-62361486D01*
X59676304Y-62619405D01*
X59776939Y-62862359D01*
X59923038Y-63081013D01*
X60108987Y-63266962D01*
X60114532Y-63270667D01*
X59928843Y-63456355D01*
X59821486Y-63435000D01*
X59558514Y-63435000D01*
X59451156Y-63456355D01*
X58983804Y-62989003D01*
X58960001Y-62959999D01*
X58844276Y-62865026D01*
X58712247Y-62794454D01*
X58568986Y-62750997D01*
X58457333Y-62740000D01*
X58457322Y-62740000D01*
X58420000Y-62736324D01*
X58382678Y-62740000D01*
X57042087Y-62740000D01*
X57030812Y-62625518D01*
X56994502Y-62505820D01*
X56935537Y-62395506D01*
X56856185Y-62298815D01*
X56759494Y-62219463D01*
X56649180Y-62160498D01*
X56529482Y-62124188D01*
X56405000Y-62111928D01*
X55355000Y-62111928D01*
X55230518Y-62124188D01*
X55110820Y-62160498D01*
X55046098Y-62195093D01*
X54837400Y-62131785D01*
X54610000Y-62109388D01*
X54382601Y-62131785D01*
X54163941Y-62198115D01*
X53975001Y-62299106D01*
X53786060Y-62198115D01*
X53567400Y-62131785D01*
X53340000Y-62109388D01*
X53112601Y-62131785D01*
X52893941Y-62198115D01*
X52692422Y-62305829D01*
X52515789Y-62450788D01*
X52370830Y-62627421D01*
X52263115Y-62828940D01*
X52196785Y-63047600D01*
X52180000Y-63218021D01*
X52180000Y-63585198D01*
X50485199Y-65280000D01*
X48478072Y-65280000D01*
X48478072Y-65190000D01*
X48465812Y-65065518D01*
X48429502Y-64945820D01*
X48370537Y-64835506D01*
X48291185Y-64738815D01*
X48194494Y-64659463D01*
X48084180Y-64600498D01*
X47964482Y-64564188D01*
X47840000Y-64551928D01*
X46140000Y-64551928D01*
X46015518Y-64564188D01*
X45895820Y-64600498D01*
X45785506Y-64659463D01*
X45688815Y-64738815D01*
X45609463Y-64835506D01*
X45550498Y-64945820D01*
X45514188Y-65065518D01*
X45501928Y-65190000D01*
X43307000Y-65190000D01*
X43307000Y-58547000D01*
X73533000Y-58547000D01*
X73533000Y-87503000D01*
G37*
%TD.AperFunction*%
%TD*%
M02*
